<svg width="16" height="16" viewBox="0 0 16 16" fill="none" xmlns="http://www.w3.org/2000/svg">
<path d="M14.9895 6.85419C14.9207 6.84335 14.8511 6.83835 14.7814 6.83923H3.733L3.99163 6.72242C4.24443 6.60624 4.47441 6.44812 4.67127 6.25522L7.99734 3.02567C8.43539 2.61964 8.50899 1.96647 8.17176 1.47806C7.77927 0.9576 7.02659 0.844596 6.49054 1.2257C6.44723 1.2565 6.40607 1.29008 6.36739 1.32622L0.352803 7.16627C-0.117237 7.62216 -0.117651 8.36169 0.351863 8.81809L0.352803 8.819L6.36739 14.6591C6.8378 15.1145 7.59944 15.1135 8.06857 14.6568C8.10549 14.6208 8.13996 14.5825 8.17176 14.5423C8.50899 14.0538 8.43539 13.4007 7.99734 12.9946L4.67729 9.75925C4.5008 9.5877 4.29788 9.44385 4.07583 9.33293L3.71496 9.17525H14.7152C15.3297 9.1974 15.8689 8.7806 15.9843 8.19412C16.0907 7.55737 15.6453 6.95749 14.9895 6.85419Z" fill="#000B20"/>
</svg>
