<svg width="26" height="26" viewBox="0 0 26 26" fill="none" xmlns="http://www.w3.org/2000/svg">
<circle cx="13" cy="13" r="13" fill="#F7F7F7"/>
<path d="M12 9.5C12 8.94772 12.4477 8.5 13 8.5H19C19.5523 8.5 20 8.94772 20 9.5C20 10.0523 19.5523 10.5 19 10.5H13C12.4477 10.5 12 10.0523 12 9.5Z" fill="#9FAAB3"/>
<path d="M6 9.5C6 8.39543 6.89543 7.5 8 7.5C9.10457 7.5 10 8.39543 10 9.5C10 10.6046 9.10457 11.5 8 11.5C6.89543 11.5 6 10.6046 6 9.5Z" fill="#9FAAB3"/>
<path d="M6 16.5C6 15.3954 6.89543 14.5 8 14.5C9.10457 14.5 10 15.3954 10 16.5C10 17.6046 9.10457 18.5 8 18.5C6.89543 18.5 6 17.6046 6 16.5Z" fill="#9FAAB3"/>
<path d="M12 16.5C12 15.9477 12.4477 15.5 13 15.5H17C17.5523 15.5 18 15.9477 18 16.5C18 17.0523 17.5523 17.5 17 17.5H13C12.4477 17.5 12 17.0523 12 16.5Z" fill="#9FAAB3"/>
</svg>
