<svg width="16" height="16" viewBox="0 0 16 16" fill="none" xmlns="http://www.w3.org/2000/svg">
<path d="M5 8C5 7.44772 5.44772 7 6 7C6.55228 7 7 7.44772 7 8V15C7 15.5523 6.55228 16 6 16C5.44772 16 5 15.5523 5 15V8Z" fill="#9FAAB3"/>
<path d="M1 11C1 10.4477 1.44772 10 2 10C2.55228 10 3 10.4477 3 11V15C3 15.5523 2.55228 16 2 16C1.44772 16 1 15.5523 1 15V11Z" fill="#9FAAB3"/>
<path d="M9 10C9 9.44772 9.44772 9 10 9C10.5523 9 11 9.44772 11 10V15C11 15.5523 10.5523 16 10 16C9.44772 16 9 15.5523 9 15V10Z" fill="#9FAAB3"/>
<path d="M13 7C13 6.44772 13.4477 6 14 6C14.5523 6 15 6.44772 15 7V15C15 15.5523 14.5523 16 14 16C13.4477 16 13 15.5523 13 15V7Z" fill="#9FAAB3"/>
<path fill-rule="evenodd" clip-rule="evenodd" d="M15.6402 0.231804C16.0645 0.585368 16.1218 1.21593 15.7683 1.64021L12.1703 5.95775C11.041 7.31297 8.99172 7.40593 7.74432 6.15852L6.55871 4.97291C6.19841 4.61261 5.6248 4.58084 5.22691 4.89915L1.62473 7.78089C1.19347 8.1259 0.564178 8.05598 0.219168 7.62472C-0.125842 7.19346 -0.0559202 6.56417 0.375342 6.21916L3.97752 3.33741C5.17119 2.38248 6.89201 2.47778 7.97293 3.5587L9.15854 4.74431C9.57434 5.16011 10.2574 5.12913 10.6339 4.67739L14.2318 0.359841C14.5854 -0.0644362 15.2159 -0.12176 15.6402 0.231804Z" fill="#9FAAB3"/>
</svg>
