<svg width="16" height="16" viewBox="0 0 16 16" fill="none" xmlns="http://www.w3.org/2000/svg">
<path fill-rule="evenodd" clip-rule="evenodd" d="M10.7574 2H3C2.44772 2 2 2.44772 2 3V13C2 13.5523 2.44772 14 3 14H13C13.5523 14 14 13.5523 14 13V5.24264C14 4.97742 13.8946 4.72307 13.7071 4.53553L11.4645 2.29289L12.8787 0.87868L15.1213 3.12132C15.6839 3.68393 16 4.44699 16 5.24264V13C16 14.6569 14.6569 16 13 16H3C1.34315 16 0 14.6569 0 13V3C0 1.34315 1.34315 0 3 0H10.7574C11.553 0 12.3161 0.316071 12.8787 0.87868L11.4645 2.29289C11.2769 2.10536 11.0226 2 10.7574 2Z" fill="#9FAAB3"/>
<path d="M4 5C4 4.44772 4.44772 4 5 4H9C9.55228 4 10 4.44772 10 5C10 5.55228 9.55228 6 9 6H5C4.44772 6 4 5.55228 4 5Z" fill="#9FAAB3"/>
<path d="M10 10C10 11.1046 9.10457 12 8 12C6.89543 12 6 11.1046 6 10C6 8.89543 6.89543 8 8 8C9.10457 8 10 8.89543 10 10Z" fill="#9FAAB3"/>
</svg>
