<svg width="16" height="16" viewBox="0 0 16 16" fill="none" xmlns="http://www.w3.org/2000/svg">
<path fill-rule="evenodd" clip-rule="evenodd" d="M3.59796 12.9953C3.0507 12.5126 2.58302 11.9414 2.21733 11.304C2.44739 11.2754 2.67079 11.2163 2.88197 11.1273C3.1573 11.0113 3.41186 10.8443 3.63333 10.6273C3.72813 10.5326 3.80942 10.4404 3.87925 10.3505C4.26205 9.85779 4.30096 9.43389 4.33764 9.03418C4.37122 8.66838 4.40293 8.32284 4.69467 7.96333C4.86133 7.76667 5.14867 7.51467 5.57867 7.42933C7.028 7.11667 8.03933 5.866 8.03933 4.38733C8.03933 4.31835 8.04004 4.24721 8.04077 4.17402C8.04331 3.91768 8.04611 3.63625 8.01966 3.33428C8.01448 3.27523 8.00819 3.2154 8.00056 3.15481C7.99624 3.12052 7.9915 3.08599 7.98628 3.05122C7.93701 2.72283 7.8459 2.37352 7.67924 2.00848C7.58417 1.80023 7.46451 1.58686 7.314 1.36933C7.54331 1.34585 7.77208 1.33416 8 1.33423C8.55604 1.33438 9.10708 1.40445 9.6488 1.54356C9.73589 1.56592 9.82274 1.59007 9.90933 1.616C9.90933 1.84866 9.91293 2.08322 9.9266 2.31761C9.93605 2.47964 9.95031 2.64158 9.97152 2.80275C9.97522 2.83088 9.97913 2.85898 9.98327 2.88705C10.0933 3.63364 10.3609 4.36094 11 5C11.4843 5.48429 12.1188 5.81598 12.7364 6.02929C13.0904 6.15156 13.4389 6.23493 13.7503 6.28585C14.0174 6.32953 14.2572 6.34933 14.45 6.34933C14.5707 6.82 14.642 7.30933 14.656 7.814C14.5845 7.79343 14.5159 7.777 14.45 7.76437C14.2818 7.73216 14.1311 7.7247 13.9943 7.73657C13.8389 7.75005 13.7015 7.78848 13.5774 7.84392C13.3852 7.92979 13.2247 8.05643 13.0776 8.19428C13.0013 8.26576 12.9287 8.34025 12.8572 8.41362C12.4828 8.79757 12.1381 9.15107 11.4593 8.88333C8.4717 7.67795 6.1674 9.86999 6.49366 12.4107C6.55738 12.907 6.72145 13.4165 7.00037 13.9166C7.13685 14.1613 7.30082 14.4038 7.494 14.6413C6.51648 14.5675 5.59739 14.2822 4.78241 13.831C4.35707 13.5955 3.96009 13.3148 3.59796 12.9953ZM5.77097 15.6841C3.76244 15.1006 2.07742 13.7491 1.05632 11.9701C0.630484 11.2282 0.320116 10.4119 0.149906 9.54601C0.0515561 9.04566 0 8.52874 0 8C0 4.84518 1.83544 2.11113 4.49461 0.809556C5.31983 0.405635 6.22439 0.139673 7.17803 0.0419063C7.44831 0.0141982 7.72253 0 8 0C8.79659 0 9.56635 0.11702 10.293 0.334772C10.8607 0.504888 11.402 0.736482 11.9093 1.02179C13.2773 1.79115 14.3974 2.95109 15.1175 4.34933C15.3877 4.87395 15.6015 5.43212 15.751 6.01579C15.8958 6.58129 15.9802 7.17073 15.9969 7.7768C15.999 7.85096 16 7.92536 16 8C16 8.76048 15.8933 9.4965 15.6942 10.1939C14.9934 12.6482 13.1474 14.6242 10.7736 15.5043C9.90912 15.8248 8.97464 16 8 16C7.79583 16 7.59343 15.9923 7.39306 15.9772C6.95211 15.944 6.52102 15.8749 6.10272 15.7727C5.99121 15.7455 5.88061 15.716 5.77097 15.6841ZM9.4134 13.8316C11.2 13.3981 12.6773 12.162 13.4401 10.5288C13.3676 10.5746 13.292 10.6182 13.214 10.6582C12.4322 11.0592 11.5648 11.0749 10.7255 10.7438L10.7182 10.741L10.711 10.7381C9.60043 10.29 8.98117 10.6938 8.70762 11.0975C8.40432 11.5451 8.25486 12.407 9.04569 13.3795L9.4134 13.8316ZM5.65028 2.4798C3.50689 3.39634 2 5.52653 2 8C2 8.4356 2.04673 8.86055 2.13545 9.2701C2.17055 9.25185 2.20112 9.22956 2.22811 9.20406C2.28073 9.15059 2.30645 9.11596 2.31716 9.09961C2.3203 9.08432 2.32622 9.04993 2.33327 8.98384C2.33525 8.96519 2.33702 8.93829 2.33927 8.90404C2.36069 8.57793 2.42591 7.58513 3.14167 6.70309L3.1551 6.68655L3.16887 6.67029C3.50816 6.26993 4.15603 5.67966 5.16633 5.47224C5.69267 5.35442 6.03933 4.9176 6.03933 4.38733C6.03933 4.31845 6.03955 4.25245 6.03976 4.18903C6.04222 3.4376 6.0435 3.04812 5.66931 2.50732L5.65028 2.4798Z" fill="#9FAAB3"/>
</svg>
