<svg width="26" height="26" viewBox="0 0 26 26" fill="none" xmlns="http://www.w3.org/2000/svg">
<path d="M13 26C20.1797 26 26 20.1797 26 13C26 5.8203 20.1797 0 13 0C5.8203 0 0 5.8203 0 13C0 20.1797 5.8203 26 13 26Z" fill="#F0F0F0"/>
<path d="M25.89 11.3044H14.6957H14.6957V0.110043C14.1406 0.0377813 13.5747 0 13 0C12.4253 0 11.8594 0.0377813 11.3044 0.110043V11.3043V11.3043H0.110043C0.0377813 11.8594 0 12.4253 0 13C0 13.5748 0.0377813 14.1406 0.110043 14.6956H11.3043H11.3043V25.89C11.8594 25.9622 12.4253 26 13 26C13.5747 26 14.1406 25.9623 14.6956 25.89V14.6957V14.6957H25.89C25.9622 14.1406 26 13.5748 26 13C26 12.4253 25.9622 11.8594 25.89 11.3044Z" fill="#D80027"/>
<path d="M7.91476 6.21742V4.52173H6.21912V6.21742H4.52344V7.91305H6.21912V9.60869H7.91476V7.91305H9.6104V6.21742H7.91476Z" fill="#D80027"/>
<path d="M19.7819 6.21742V4.52173H18.0863V6.21742H16.3906V7.91305H18.0863V9.60869H19.7819V7.91305H21.4776V6.21742H19.7819Z" fill="#D80027"/>
<path d="M7.91476 18.0868V16.3911H6.21912V18.0868H4.52344V19.7824H6.21912V21.4781H7.91476V19.7824H9.6104V18.0868H7.91476Z" fill="#D80027"/>
<path d="M19.7819 18.0868V16.3911H18.0863V18.0868H16.3906V19.7824H18.0863V21.4781H19.7819V19.7824H21.4776V18.0868H19.7819Z" fill="#D80027"/>
</svg>
