<svg width="30" height="30" viewBox="0 0 30 30" fill="none" xmlns="http://www.w3.org/2000/svg">
<path d="M15 29C22.732 29 29 22.732 29 15C29 7.26801 22.732 1 15 1C7.26801 1 1 7.26801 1 15C1 22.732 7.26801 29 15 29Z" fill="#6DA544" stroke="white" stroke-width="2"/>
<path d="M14.9999 7.08698L25.739 15L14.9999 22.9131L4.26074 15L14.9999 7.08698Z" fill="#FFDA44"/>
<path d="M15.0002 19.5217C17.4975 19.5217 19.5219 17.4973 19.5219 15C19.5219 12.5027 17.4975 10.4783 15.0002 10.4783C12.503 10.4783 10.4785 12.5027 10.4785 15C10.4785 17.4973 12.503 19.5217 15.0002 19.5217Z" fill="#F0F0F0"/>
<path d="M12.7389 14.7174C11.9526 14.7174 11.1938 14.837 10.4795 15.0589C10.5111 17.5289 12.5223 19.5218 14.9998 19.5218C16.5318 19.5218 17.8848 18.7592 18.7027 17.5937C17.3033 15.8419 15.1501 14.7174 12.7389 14.7174Z" fill="#0052B4"/>
<path d="M19.4369 15.8663C19.4913 15.5858 19.5207 15.2964 19.5207 15C19.5207 12.5027 17.4962 10.4783 14.999 10.4783C13.1356 10.4783 11.536 11.6057 10.8438 13.2153C11.4557 13.0885 12.0892 13.0218 12.7381 13.0218C15.3644 13.0217 17.7403 14.1134 19.4369 15.8663Z" fill="#0052B4"/>
</svg>
