<svg width="30" height="30" viewBox="0 0 30 30" fill="none" xmlns="http://www.w3.org/2000/svg">
<path d="M15 29C22.732 29 29 22.732 29 15C29 7.26801 22.732 1 15 1C7.26801 1 1 7.26801 1 15C1 22.732 7.26801 29 15 29Z" fill="#F0F0F0" stroke="white" stroke-width="2"/>
<path d="M4.68677 7.08533C3.66561 8.41392 2.89561 9.94523 2.44727 11.6088H9.21021L4.68677 7.08533Z" fill="#0052B4"/>
<path d="M27.5509 11.6087C27.1026 9.94523 26.3325 8.41392 25.3114 7.08533L20.7881 11.6087H27.5509Z" fill="#0052B4"/>
<path d="M2.44727 18.3914C2.89566 20.0548 3.66566 21.5862 4.68677 22.9147L9.21006 18.3914H2.44727Z" fill="#0052B4"/>
<path d="M22.914 4.68737C21.5854 3.66621 20.0542 2.89621 18.3906 2.44781V9.21071L22.914 4.68737Z" fill="#0052B4"/>
<path d="M7.08496 25.3126C8.41355 26.3338 9.94486 27.1038 11.6084 27.5522V20.7893L7.08496 25.3126Z" fill="#0052B4"/>
<path d="M11.6083 2.44781C9.94481 2.89621 8.4135 3.66621 7.08496 4.68732L11.6083 9.21066V2.44781Z" fill="#0052B4"/>
<path d="M18.3906 27.5522C20.0541 27.1038 21.5854 26.3338 22.914 25.3126L18.3906 20.7893V27.5522Z" fill="#0052B4"/>
<path d="M20.7881 18.3914L25.3114 22.9147C26.3325 21.5862 27.1026 20.0548 27.5509 18.3914H20.7881Z" fill="#0052B4"/>
<path d="M27.89 13.3044H16.6957H16.6957V2.11004C16.1406 2.03778 15.5747 2 15 2C14.4252 2 13.8594 2.03778 13.3044 2.11004V13.3043V13.3043H2.11004C2.03778 13.8594 2 14.4253 2 15C2 15.5748 2.03778 16.1406 2.11004 16.6956H13.3043H13.3043V27.89C13.8594 27.9622 14.4252 28 15 28C15.5747 28 16.1406 27.9623 16.6956 27.89V16.6957V16.6957H27.89C27.9622 16.1406 28 15.5748 28 15C28 14.4253 27.9622 13.8594 27.89 13.3044Z" fill="#D80027"/>
<path d="M18.3906 18.3913L24.1917 24.1924C24.4585 23.9257 24.713 23.6469 24.9558 23.3578L19.9893 18.3913H18.3906V18.3913Z" fill="#D80027"/>
<path d="M11.6087 18.3914H11.6086L5.80762 24.1924C6.07432 24.4592 6.35316 24.7137 6.64221 24.9565L11.6087 19.9899V18.3914Z" fill="#D80027"/>
<path d="M11.6082 11.6088V11.6087L5.80713 5.80756C5.54032 6.07426 5.2858 6.3531 5.04297 6.64215L10.0095 11.6087H11.6082V11.6088Z" fill="#D80027"/>
<path d="M18.3906 11.6088L24.1917 5.80762C23.925 5.54082 23.6462 5.2863 23.3571 5.04352L18.3906 10.0101V11.6088Z" fill="#D80027"/>
</svg>
