<svg width="26" height="26" viewBox="0 0 26 26" fill="none" xmlns="http://www.w3.org/2000/svg">
<path d="M0 13C0 14.5902 0.286051 16.1134 0.80859 17.5217L13 18.087L25.1914 17.5218C25.714 16.1134 26 14.5902 26 13C26 11.4099 25.714 9.88665 25.1914 8.47833L13 7.91309L0.80859 8.47828C0.286051 9.88665 0 11.4099 0 13H0Z" fill="black"/>
<path d="M13 0C7.41046 0 2.6454 3.52787 0.808594 8.47828H25.1915C23.3546 3.52787 18.5895 0 13 0Z" fill="#0052B4"/>
<path d="M25.1914 17.522H0.808594C2.6454 22.4723 7.41046 26.0003 13 26.0003C18.5895 26.0003 23.3546 22.4723 25.1914 17.522Z" fill="#F0F0F0"/>
</svg>
