<svg width="30" height="30" viewBox="0 0 30 30" fill="none" xmlns="http://www.w3.org/2000/svg">
<path d="M15 29C22.732 29 29 22.732 29 15C29 7.26801 22.732 1 15 1C7.26801 1 1 7.26801 1 15C1 22.732 7.26801 29 15 29Z" fill="#F0F0F0" stroke="white" stroke-width="2"/>
<path d="M15 11.6087H27.5522C27.2262 10.3994 26.7308 9.25978 26.0919 8.21735H15V11.6087Z" fill="#338AF3"/>
<path d="M6.90878 25.1739H23.0934C24.2798 24.229 25.2973 23.0812 26.093 21.7826H3.90918C4.70497 23.0812 5.72243 24.229 6.90878 25.1739Z" fill="#338AF3"/>
<path d="M6.52284 5.14532C5.50082 6.02541 4.61727 7.06181 3.90918 8.21739H6.52284V5.14532Z" fill="#338AF3"/>
<path d="M15 15C15 13.6759 15 12.5677 15 11.6087H9.91304V15H6.52171V11.6087H2.44784C2.15641 12.69 2 13.8266 2 15C2 16.1734 2.15641 17.31 2.44784 18.3914H27.5522C27.8436 17.31 28 16.1734 28 15H15Z" fill="#338AF3"/>
<path d="M15 2C13.1948 2 11.4756 2.36832 9.91309 3.0333V8.2174H15C15 7.03359 15 6.02675 15 4.82608H23.0924C20.8717 3.05747 18.0596 2 15 2Z" fill="#338AF3"/>
</svg>
