<svg width="26" height="26" viewBox="0 0 26 26" fill="none" xmlns="http://www.w3.org/2000/svg">
<path d="M24.5582 7.03938C23.9575 5.87553 23.1701 4.78312 22.1945 3.80751C21.2189 2.83185 20.1264 2.04449 18.9626 1.44385L9.80426 9.80275L1.44531 18.9611C2.046 20.1249 2.83337 21.2174 3.80898 22.193C4.78459 23.1686 5.87704 23.956 7.04085 24.5567L16.1992 16.1977L24.5582 7.03938Z" fill="#FFDA44"/>
<path d="M3.80752 22.193C4.35286 22.7384 4.93476 23.2247 5.5451 23.653L23.6529 5.5451C23.2247 4.93476 22.7384 4.35286 22.193 3.80752C21.6476 3.26218 21.0658 2.77584 20.4554 2.34766L2.34766 20.4554C2.77579 21.0657 3.26212 21.6477 3.80752 22.193Z" fill="#D80027"/>
<path d="M3.80728 3.80717C-0.29417 7.90862 -1.08153 14.0683 1.44362 18.9608L18.9609 1.44355C14.0683 -1.08154 7.90868 -0.294078 3.80728 3.80717Z" fill="#338AF3"/>
<path d="M22.1926 22.1925C26.294 18.0911 27.0814 11.9315 24.5564 7.03896L7.03906 24.5562C11.9316 27.0813 18.0913 26.294 22.1926 22.1925Z" fill="#338AF3"/>
<path d="M6.92875 3.95605L7.63025 6.11512H9.90037L8.06382 7.44945L8.76531 9.60847L6.92875 8.27409L5.0921 9.60847L5.79369 7.44945L3.95703 6.11512H6.22716L6.92875 3.95605Z" fill="#FFDA44"/>
</svg>
