<svg width="26" height="26" viewBox="0 0 26 26" fill="none" xmlns="http://www.w3.org/2000/svg">
<path d="M13 26C20.1797 26 26 20.1797 26 13C26 5.8203 20.1797 0 13 0C5.8203 0 0 5.8203 0 13C0 20.1797 5.8203 26 13 26Z" fill="#F0F0F0"/>
<path d="M12.9991 0C7.84512 0 3.39181 2.99939 1.28906 7.34784H24.7091C22.6064 2.99939 18.1531 0 12.9991 0Z" fill="#D80027"/>
<path d="M12.9991 26.0002C18.1531 26.0002 22.6064 23.0008 24.7092 18.6523H1.28906C3.39181 23.0008 7.84512 26.0002 12.9991 26.0002Z" fill="#0052B4"/>
<path d="M16.1956 9.2373L14.9966 10.4363C15.508 10.9477 15.8244 11.6542 15.8244 12.4347C15.8244 13.9955 14.5591 15.2607 12.9983 15.2607C11.4375 15.2607 10.1722 13.9954 10.1722 12.4347C10.1722 11.6542 10.4886 10.9477 11 10.4363L9.80099 9.2373C8.98265 10.0555 8.47656 11.1859 8.47656 12.4347C8.47656 14.932 10.501 16.9564 12.9983 16.9564C15.4956 16.9564 17.52 14.9319 17.52 12.4347C17.52 11.1859 17.0139 10.0555 16.1956 9.2373Z" fill="#6DA544"/>
<path d="M13.0017 10.7397L13.4226 12.0352H14.7846L13.6827 12.8357L14.1036 14.1311L13.0017 13.3305L11.8997 14.1311L12.3207 12.8357L11.2188 12.0352H12.5808L13.0017 10.7397Z" fill="#FFDA44"/>
</svg>
