<svg width="26" height="26" viewBox="0 0 26 26" fill="none" xmlns="http://www.w3.org/2000/svg">
<path d="M18.6535 1.28995C16.9444 0.463531 15.027 0 13.0013 0C10.9757 0 9.05829 0.463531 7.34919 1.28995L6.21875 13L7.34919 24.7101C9.05829 25.5365 10.9757 26 13.0013 26C15.027 26 16.9444 25.5365 18.6535 24.7101L19.7839 13L18.6535 1.28995Z" fill="#FFDA44"/>
<path d="M13.0004 8.47803L14.1227 11.9322H17.755L14.8166 14.0672L15.9389 17.5215L13.0004 15.3866L10.062 17.5215L11.1845 14.0672L8.24609 11.9322H11.8781L13.0004 8.47803Z" fill="#496E2D"/>
<path d="M7.34784 1.29004C2.99945 3.39274 0 7.8457 0 12.9996C0 18.1536 2.99945 22.6065 7.34784 24.7092V1.29004Z" fill="#496E2D"/>
<path d="M18.6523 1.29004V24.7092C23.0007 22.6065 26.0002 18.1536 26.0002 12.9996C26.0002 7.8457 23.0007 3.39274 18.6523 1.29004Z" fill="#D80027"/>
</svg>
