<svg width="12" height="12" viewBox="0 0 12 12" fill="none" xmlns="http://www.w3.org/2000/svg">
<path d="M1.81713 11.7897C1.8707 11.7513 1.92071 11.7083 1.96663 11.6611L9.89 3.73201L9.79922 3.98695C9.7119 4.23756 9.66925 4.50238 9.67315 4.7695L9.71821 9.26164C9.71059 9.8397 10.1199 10.3477 10.688 10.4654C11.3156 10.5686 11.8977 10.1448 11.9883 9.51872C11.9956 9.46813 11.9995 9.41702 12 9.36578L11.9185 1.24257C11.9125 0.608096 11.3937 0.0883302 10.7596 0.0816054L2.64104 4.37739e-05C2.00706 -0.00543698 1.49898 0.504444 1.50621 1.13893C1.50678 1.18886 1.51061 1.23877 1.51765 1.28834C1.63521 1.85687 2.14287 2.26649 2.72051 2.25887L7.20948 2.31209C7.4478 2.31461 7.68433 2.28 7.91053 2.20948L8.26229 2.07899L0.371089 9.97591C-0.0549698 10.3712 -0.122557 11.0243 0.212008 11.5135C0.58793 12.0319 1.30654 12.1555 1.81713 11.7897Z" fill="#64AF8B"/>
</svg>
