<svg width="30" height="30" viewBox="0 0 30 30" fill="none" xmlns="http://www.w3.org/2000/svg">
<circle cx="15" cy="15" r="14" fill="#F7F7F7" stroke="white" stroke-width="2"/>
<path d="M21.4185 13.2848C21.3549 13.209 21.26 13.1647 21.1605 13.1647H19.8953C19.5831 12.3591 19.1763 11.5699 18.714 11.2719C17.1146 10.2427 12.8723 10.2427 11.2729 11.2719C10.8103 11.5702 10.4052 12.3604 10.0913 13.1647H8.82608C8.72556 13.1647 8.63102 13.209 8.56811 13.2848C8.50487 13.3604 8.47957 13.4603 8.50021 13.5564L8.68761 14.4446C8.71957 14.596 8.85604 14.7041 9.01348 14.7041H9.38828C9.02646 15.1125 8.85104 15.6266 8.84871 16.141C8.84638 16.7766 9.09303 17.351 9.54406 17.7574C9.54905 17.7616 9.55404 17.7645 9.5587 17.7688V19.0116C9.5587 19.2809 9.78238 19.5 10.058 19.5H11.225C11.5006 19.5 11.7243 19.2809 11.7243 19.0116V18.5121H18.262V19.0116C18.262 19.2809 18.4856 19.5 18.7613 19.5H19.9283C20.2032 19.5 20.4275 19.2809 20.4275 19.0116V17.7932C20.9062 17.3643 21.1349 16.7744 21.1379 16.1853C21.1399 15.6533 20.9565 15.1203 20.5733 14.7035H20.9731C21.1312 14.7035 21.2677 14.5954 21.299 14.4437L21.4867 13.5557C21.506 13.4603 21.4817 13.361 21.4185 13.2848ZM11.8211 12.0876C13.096 11.2667 16.8903 11.2667 18.1644 12.0876C18.4121 12.2465 18.7306 12.8889 19.0225 13.6756H10.9637C11.255 12.8892 11.5735 12.2471 11.8211 12.0876ZM10.3279 16.2635C10.3279 15.7327 10.768 15.3029 11.3102 15.3029C11.8531 15.3029 12.2925 15.7327 12.2925 16.2635C12.2925 16.7942 11.8531 17.2243 11.3102 17.2243C10.768 17.2243 10.3279 16.7942 10.3279 16.2635ZM18.689 17.2243C18.1468 17.2243 17.7068 16.7942 17.7068 16.2635C17.7068 15.7327 18.1468 15.3029 18.689 15.3029C19.2319 15.3029 19.6713 15.7327 19.6713 16.2635C19.6713 16.7942 19.2312 17.2243 18.689 17.2243Z" fill="#000B20"/>
</svg>
