<svg width="16" height="16" viewBox="0 0 16 16" fill="none" xmlns="http://www.w3.org/2000/svg">
<path fill-rule="evenodd" clip-rule="evenodd" d="M8 16.0002C12.4183 16.0002 16 12.4185 16 8.00023C16 3.58195 12.4183 0.000228882 8 0.000228882C3.58172 0.000228882 0 3.58195 0 8.00023C0 12.4185 3.58172 16.0002 8 16.0002ZM5.63276 4.28038C5.25924 3.90685 4.65365 3.90685 4.28014 4.28038C3.90662 4.65391 3.90662 5.25952 4.28014 5.63305L6.64738 8.00039L4.28046 10.3674C3.90694 10.7409 3.90694 11.3466 4.28046 11.7201C4.65397 12.0936 5.25956 12.0936 5.63308 11.7201L8 9.35306L10.3669 11.7201C10.7404 12.0936 11.346 12.0936 11.7195 11.7201C12.0931 11.3465 12.0931 10.7409 11.7195 10.3674L9.35262 8.00039L11.7199 5.63305C12.0934 5.25952 12.0934 4.65391 11.7199 4.28038C11.3463 3.90685 10.7408 3.90685 10.3672 4.28038L8 6.64772L5.63276 4.28038Z" fill="#9FAAB3"/>
</svg>
