<svg width="26" height="26" viewBox="0 0 26 26" fill="none" xmlns="http://www.w3.org/2000/svg">
<path d="M13 26C20.1797 26 26 20.1797 26 13C26 5.8203 20.1797 0 13 0C5.8203 0 0 5.8203 0 13C0 20.1797 5.8203 26 13 26Z" fill="#D80027"/>
<path d="M12.4688 10.6227L13.5355 12.0926L15.2629 11.5325L14.1946 13.0011L15.2611 14.4709L13.5343 13.9086L12.466 15.3772L12.4671 13.5612L10.7402 12.999L12.4677 12.4389L12.4688 10.6227Z" fill="#F0F0F0"/>
<path d="M9.5578 16.6739C7.52878 16.6739 5.88388 15.029 5.88388 12.9999C5.88388 10.9709 7.52878 9.32602 9.5578 9.32602C10.1904 9.32602 10.7857 9.48604 11.3054 9.76762C10.4901 8.97025 9.37509 8.47818 8.14476 8.47818C5.64744 8.47818 3.62305 10.5026 3.62305 12.9999C3.62305 15.4972 5.64749 17.5216 8.14476 17.5216C9.37519 17.5216 10.4901 17.0295 11.3054 16.2322C10.7857 16.5139 10.1904 16.6739 9.5578 16.6739Z" fill="#F0F0F0"/>
</svg>
