<svg width="16" height="16" viewBox="0 0 16 16" fill="none" xmlns="http://www.w3.org/2000/svg">
<path fill-rule="evenodd" clip-rule="evenodd" d="M1.09933 2.2105L4.75297 0.097003C4.9641 -0.0251262 5.22155 -0.0323601 5.43904 0.0777257L10.561 2.67021C10.7785 2.7803 11.0359 2.77306 11.247 2.65093L14.3678 0.845656C15.0951 0.424962 16 0.956554 16 1.80449V11.8718C16 12.6644 15.5805 13.3963 14.9007 13.7895L11.247 15.903C11.0359 16.0251 10.7785 16.0324 10.561 15.9223L5.43904 13.3298C5.22155 13.2197 4.9641 13.2269 4.75297 13.3491L1.63215 15.1543C0.90489 15.575 0 15.0434 0 14.1955V4.12816C0 3.33557 0.419533 2.60373 1.09933 2.2105ZM4.56465 1.64041L4.76566 1.53866C4.97041 1.43503 5.21141 1.43503 5.41616 1.53866L5.61717 1.64041C5.74036 1.70276 5.81818 1.83023 5.81818 1.96966V11.8111C5.81818 11.9205 5.70439 11.9917 5.60768 11.9428L5.25353 11.7635C5.15116 11.7117 5.03066 11.7117 4.92829 11.7635L4.57414 11.9428C4.47743 11.9917 4.36364 11.9205 4.36364 11.8111V1.96966C4.36364 1.83023 4.44146 1.70276 4.56465 1.64041ZM11.2343 14.4614L11.4354 14.3596C11.5585 14.2973 11.6364 14.1698 11.6364 14.0304L11.6364 4.18898C11.6364 4.07952 11.5226 4.00833 11.4259 4.05728L11.0717 4.23654C10.9693 4.28835 10.8488 4.28835 10.7465 4.23654L10.3923 4.05728C10.2956 4.00833 10.1818 4.07952 10.1818 4.18898L10.1818 14.0304C10.1818 14.1698 10.2596 14.2973 10.3828 14.3596L10.5838 14.4614C10.7886 14.565 11.0296 14.565 11.2343 14.4614Z" fill="#9FAAB3"/>
</svg>
