<svg width="16" height="16" viewBox="0 0 16 16" fill="none" xmlns="http://www.w3.org/2000/svg">
<path d="M0 8.61543C0 5.41128 1.78329 2.77687 4.57188 1.77791C5.20695 1.55041 5.81818 2.06896 5.81818 2.74354V7.27255C5.81818 8.8792 7.12063 10.1816 8.72727 10.1816H13.2563C13.9309 10.1816 14.4494 10.7929 14.2219 11.428C13.223 14.2166 10.5888 16 7.38462 16C3.30621 16 0 12.6938 0 8.61543Z" fill="#9FAAB3"/>
<path d="M7.38462 6.43356V2.18181C7.38462 0.976822 8.37537 -0.0334534 9.55486 0.213137C13.415 1.02016 15.1258 3.96853 15.7282 6.45601C16.0117 7.62714 15.0232 8.61537 13.8182 8.61537H9.56643C8.36145 8.61537 7.38462 7.63854 7.38462 6.43356Z" fill="#9FAAB3"/>
</svg>
