<svg width="14" height="16" viewBox="0 0 14 16" fill="none" xmlns="http://www.w3.org/2000/svg">
<path d="M5.59966 2.45333C5.59966 2.638 5.75646 2.78667 5.94966 2.78667H8.04966C8.24286 2.78667 8.39966 2.638 8.39966 2.45333V1.33333C8.39966 0.598 7.77176 0 6.99966 0C6.22756 0 5.59966 0.598 5.59966 1.33333V2.45333Z" fill="#9FAAB3"/>
<path d="M4.54966 13.6668C4.54966 14.9535 5.64866 16.0002 6.99966 16.0002C8.35066 16.0002 9.44966 14.9535 9.44966 13.6668C9.44966 13.4828 9.29286 13.3335 9.09966 13.3335H4.89966C4.70646 13.3335 4.54966 13.4828 4.54966 13.6668Z" fill="#9FAAB3"/>
<path d="M12.95 14H1.05C0.4711 14 0 13.5513 0 13C0 12.7073 0.1337 12.4306 0.3675 12.24C1.4707 11.352 2.1 10.06 2.1 8.69198V6.66664C2.1 4.09331 4.298 1.99997 7 1.99997C9.702 1.99997 11.9 4.09331 11.9 6.66664V8.69198C11.9 10.0606 12.5293 11.352 13.6269 12.2353C13.8663 12.4306 14 12.7073 14 13C14 13.5513 13.5296 14 12.95 14Z" fill="#9FAAB3"/>
</svg>
