<svg width="16" height="16" viewBox="0 0 16 16" fill="none" xmlns="http://www.w3.org/2000/svg">
<path d="M0.343566 10.7404L1.79811 13.2597C1.97149 13.5599 2.33266 13.696 2.661 13.585L4.80131 12.8609C4.99045 12.9856 5.18657 13.0991 5.38841 13.2006L5.83137 15.4154C5.89935 15.7553 6.19787 16 6.54454 16H9.45363C9.80029 16 10.0988 15.7553 10.1668 15.4154L10.6097 13.2006C10.8116 13.0991 11.0077 12.9856 11.1968 12.8609L13.3372 13.585C13.6655 13.696 14.0267 13.56 14.2 13.2597L15.6546 10.7403C15.8279 10.4401 15.7653 10.0592 15.5049 9.8304L13.8074 8.33867C13.814 8.22565 13.8173 8.11253 13.8173 8C13.8173 7.88742 13.814 7.7743 13.8074 7.66128L15.5048 6.1696C15.7652 5.94075 15.8278 5.5599 15.6545 5.25969L14.2 2.74032C14.0266 2.4401 13.6654 2.3039 13.3371 2.41503L11.1968 3.1391C11.0077 3.0144 10.8116 2.90095 10.6097 2.79942L10.1668 0.58463C10.0988 0.244703 9.80029 0 9.45363 0H6.54454C6.19787 0 5.89935 0.244703 5.83137 0.58463L5.38841 2.79942C5.18657 2.90095 4.9905 3.01445 4.80136 3.1391L2.661 2.41503C2.33275 2.304 1.97149 2.4401 1.79811 2.74032L0.343566 5.25969C0.170233 5.5599 0.232875 5.94075 0.493288 6.1696L2.19065 7.66128C2.18415 7.77416 2.1809 7.88727 2.1809 8C2.1809 8.11273 2.18415 8.22589 2.19065 8.33871L0.493288 9.8304C0.232875 10.0592 0.170233 10.4401 0.343566 10.7404ZM7.99908 5.09091C9.60315 5.09091 10.9082 6.39593 10.9082 8C10.9082 9.60407 9.60315 10.9091 7.99908 10.9091C6.39501 10.9091 5.08999 9.60407 5.08999 8C5.08999 6.39593 6.39501 5.09091 7.99908 5.09091Z" fill="#9FAAB3"/>
</svg>
