<svg width="17" height="16" viewBox="0 0 17 16" fill="none" xmlns="http://www.w3.org/2000/svg">
<path d="M9.37235 15.3486H1.07251L6.89982 7.64234C7.27784 7.14243 7.86834 6.84863 8.49508 6.84863H15C15.8139 6.84863 16.2869 7.76903 15.8131 8.43079L11.8116 14.0951C11.2483 14.8819 10.34 15.3486 9.37235 15.3486Z" fill="#9FAAB3"/>
<path d="M14.5 4.51515V5.47303H7.66356C7.03809 5.47303 6.44864 5.76564 6.07049 6.26385L1.07251 13V7.12387C0.418693 6.82668 0 6.18222 0 5.47303V4.51515C0 3.67836 0.688793 3 1.53846 3H12.9615C13.8112 3 14.5 3.67836 14.5 4.51515Z" fill="#9FAAB3"/>
<path fill-rule="evenodd" clip-rule="evenodd" d="M3.73315 2.31922C4.22906 1.34244 5.23163 0.727051 6.32709 0.727051L8.69844 0.727275C9.79389 0.727275 10.7965 1.34266 11.2924 2.31944L11.8849 3.48654L10.2994 4L9.63217 2.88801C9.3693 2.44989 8.89584 2.18182 8.38491 2.18182L6.64031 2.1816C6.12938 2.1816 5.65592 2.44967 5.39305 2.88778L4.72585 3.99978L3.14062 3.48632L3.73315 2.31922Z" fill="#9FAAB3"/>
</svg>
