<svg width="16" height="16" viewBox="0 0 16 16" fill="none" xmlns="http://www.w3.org/2000/svg">
<path d="M7.99929 16C5.6821 16 3.69304 15.4405 2.34574 14.9836C1.39293 14.6604 0.726562 13.7171 0.726562 12.711V12.555C0.726562 11.3036 2.61122 10.2633 4.01586 9.71658C4.4781 9.53665 4.98903 9.66541 5.43129 9.89001C6.35224 10.3577 7.46453 10.4881 7.99929 10.4881C8.53405 10.4881 9.64634 10.3577 10.5673 9.89001C11.0096 9.66541 11.5205 9.53665 11.9827 9.71658C13.3874 10.2633 15.272 11.3036 15.272 12.555V12.711C15.272 13.7171 14.6057 14.6604 13.6528 14.9836C12.3055 15.4405 10.3165 16 7.99929 16Z" fill="#9FAAB3"/>
<circle cx="8.00035" cy="4.36364" r="4.36364" fill="#9FAAB3"/>
</svg>
