<svg width="16" height="16" viewBox="0 0 16 16" fill="none" xmlns="http://www.w3.org/2000/svg">
<path fill-rule="evenodd" clip-rule="evenodd" d="M3.73435 2.31943C4.23026 1.34265 5.23284 0.727264 6.32829 0.727264H9.67158C10.767 0.727264 11.7696 1.34265 12.2655 2.31943L12.858 3.48653L11.2725 3.99999L10.6053 2.888C10.3424 2.44988 9.86898 2.18181 9.35805 2.18181H6.64151C6.13059 2.18181 5.65712 2.44988 5.39425 2.888L4.72705 3.99999L3.14183 3.48653L3.73435 2.31943Z" fill="#9FAAB3"/>
<path d="M16 4.6668V5.62468C16 6.33387 15.5813 6.97833 14.9275 7.27552L9.54729 9.72106C8.56553 10.1673 7.43447 10.1673 6.45271 9.72106L1.07251 7.27552C0.418693 6.97833 0 6.33387 0 5.62468V4.6668C0 3.83001 0.688793 3.15165 1.53846 3.15165H14.4615C15.3112 3.15165 16 3.83001 16 4.6668Z" fill="#9FAAB3"/>
<path d="M12.9511 15.2729H3.04901C2.04485 15.2729 1.23082 14.4589 1.23082 13.4547V9.09093L6.85138 11.5065C7.5847 11.8216 8.41531 11.8217 9.14864 11.5065L14.7693 9.09104V13.4547C14.7693 14.4589 13.9553 15.2729 12.9511 15.2729Z" fill="#9FAAB3"/>
</svg>
