<svg width="18" height="18" viewBox="0 0 18 18" fill="none" xmlns="http://www.w3.org/2000/svg">
<path d="M7.94828 3.62342L8.00971 3.72342L8.09262 3.80648C8.21911 3.93319 8.51061 4.175 8.93761 4.175C9.18944 4.175 9.50145 4.08262 9.736 3.81409C9.8085 3.73109 9.86192 3.64456 9.90096 3.5594C10.6162 2.5987 11.7669 2 13.0927 2C15.0868 2 16.7216 3.51605 16.9864 5.87638C16.988 5.9046 16.9898 5.92725 16.9904 5.9347C16.9905 5.93579 16.9906 5.93656 16.9906 5.93697C16.9927 5.96435 16.9947 5.99058 16.9964 6.02215C16.9997 6.08347 17.0021 6.1701 16.9974 6.28344C16.988 6.50969 16.9493 6.86048 16.8195 7.33731L16.818 7.34276C16.4653 8.66781 15.7676 9.88313 14.6425 10.8369C14.6424 10.837 14.6423 10.8371 14.6422 10.8372L8.91052 15.6819L3.36862 10.8465L3.36324 10.8418L3.35779 10.8372C2.23254 9.88335 1.53472 8.66793 1.18197 7.34276L1.178 7.32788L1.17358 7.31312C1.05127 6.9047 1.01234 6.56405 1.0027 6.3226C0.997876 6.20185 1.00031 6.10405 1.00385 6.03185C1.00565 5.99517 1.00776 5.9644 1.00983 5.93481C1.00987 5.93419 1.00995 5.93314 1.01006 5.9317C1.01069 5.92332 1.0123 5.90175 1.01368 5.87551C1.27879 3.51568 2.91347 2 4.90728 2C6.1823 2 7.34453 2.64058 7.94828 3.62342Z" stroke="#9FAAB3" stroke-width="2"/>
</svg>
