<svg width="30" height="30" viewBox="0 0 30 30" fill="none" xmlns="http://www.w3.org/2000/svg">
<circle cx="15" cy="15" r="14" fill="#F7F7F7" stroke="white" stroke-width="2"/>
<path d="M18.625 9H11.375C10.6165 9 10 9.6165 10 10.375V19.625C10 20.3835 10.6165 21 11.375 21H18.625C19.3835 21 20 20.3835 20 19.625V10.375C20 9.6165 19.3835 9 18.625 9ZM13.89 18.36C14.0365 18.5065 14.0365 18.744 13.89 18.8905C13.817 18.9635 13.721 19 13.625 19C13.529 19 13.433 18.9635 13.36 18.89L13 18.5305L12.64 18.8905C12.567 18.9635 12.471 19 12.375 19C12.279 19 12.183 18.9635 12.11 18.89C11.9635 18.7435 11.9635 18.506 12.11 18.3595L12.4695 18L12.1095 17.64C11.963 17.4935 11.963 17.256 12.1095 17.1095C12.256 16.963 12.4935 16.963 12.64 17.1095L13 17.4695L13.36 17.1095C13.5065 16.963 13.744 16.963 13.8905 17.1095C14.037 17.256 14.037 17.4935 13.8905 17.64L13.5305 18L13.89 18.36ZM13.625 15.375H13.375V15.625C13.375 15.832 13.207 16 13 16C12.793 16 12.625 15.832 12.625 15.625V15.375H12.375C12.168 15.375 12 15.207 12 15C12 14.793 12.168 14.625 12.375 14.625H12.625V14.375C12.625 14.168 12.793 14 13 14C13.207 14 13.375 14.168 13.375 14.375V14.625H13.625C13.832 14.625 14 14.793 14 15C14 15.207 13.832 15.375 13.625 15.375ZM17.625 19H16.375C16.168 19 16 18.832 16 18.625C16 18.418 16.168 18.25 16.375 18.25H17.625C17.832 18.25 18 18.418 18 18.625C18 18.832 17.832 19 17.625 19ZM17.625 17.75H16.375C16.168 17.75 16 17.582 16 17.375C16 17.168 16.168 17 16.375 17H17.625C17.832 17 18 17.168 18 17.375C18 17.582 17.832 17.75 17.625 17.75ZM17.625 15.5H16.375C16.168 15.5 16 15.332 16 15.125C16 14.918 16.168 14.75 16.375 14.75H17.625C17.832 14.75 18 14.918 18 15.125C18 15.332 17.832 15.5 17.625 15.5ZM18.5 12.125C18.5 12.6075 18.1075 13 17.625 13H12.375C11.8925 13 11.5 12.6075 11.5 12.125V11.375C11.5 10.8925 11.8925 10.5 12.375 10.5H17.625C18.1075 10.5 18.5 10.8925 18.5 11.375V12.125Z" fill="#000B20"/>
</svg>
