<svg width="30" height="30" viewBox="0 0 30 30" fill="none" xmlns="http://www.w3.org/2000/svg">
<circle cx="15" cy="15" r="14" fill="#DB7880" stroke="white" stroke-width="2"/>
<path fill-rule="evenodd" clip-rule="evenodd" d="M16 11.8241C16 11.369 16.369 11 16.8241 11H20.6C20.8209 11 21 11.1791 21 11.4V14.8652C21 15.3487 20.608 15.7406 20.1245 15.7406C19.641 15.7406 19.2491 15.3487 19.2491 14.8652V13.8138L15.146 17.6764C14.9919 17.8214 14.7516 17.8214 14.5976 17.6764L13.1209 16.2862L10.8198 18.4524C10.493 18.76 9.98318 18.76 9.65639 18.4524C9.30047 18.1173 9.30047 17.5516 9.65639 17.2166L12.8467 14.2133C13.0007 14.0683 13.241 14.0683 13.3951 14.2133L14.8718 15.6035L18.011 12.6483H16.8241C16.369 12.6483 16 12.2793 16 11.8241Z" fill="white"/>
</svg>
