<svg width="30" height="30" viewBox="0 0 30 30" fill="none" xmlns="http://www.w3.org/2000/svg">
<circle cx="15" cy="15" r="14" fill="#F7F7F7" stroke="white" stroke-width="2"/>
<path d="M20.3435 10.1406C20.3381 10.0616 20.2652 10 20.1771 10H17.785C17.6969 10 17.624 10.0616 17.6187 10.1406L17.3469 14.1575H16.6164V12.3431C16.6164 12.2892 16.5842 12.2396 16.5321 12.2129C16.48 12.1863 16.416 12.1869 16.3645 12.2144L13.2064 13.902V12.3431C13.2064 12.2898 13.1749 12.2406 13.1237 12.2138C13.0726 12.187 13.0094 12.1866 12.9578 12.2128L9.0847 14.1768C9.03237 14.2034 9 14.2531 9 14.3071V19.8503C9 19.933 9.0746 20 9.16667 20H20.8333C20.8793 20 20.9232 19.983 20.9547 19.9529C20.9862 19.9229 21.0025 19.8825 20.9997 19.8413L20.3435 10.1406ZM13.0374 16.8856H10.7375V15.6286H13.0374V16.8856ZM16.3372 16.8856H14.0373V15.6286H16.3372V16.8856Z" fill="#000B20"/>
</svg>
