<svg width="20" height="20" viewBox="0 0 20 20" fill="none" xmlns="http://www.w3.org/2000/svg">
<path d="M0 10.7697C0 6.76449 2.22912 3.47149 5.71485 2.22278C6.50868 1.93841 7.27273 2.58659 7.27273 3.42983V9.09109C7.27273 11.0994 8.90078 12.7274 10.9091 12.7274H16.5704C17.4136 12.7274 18.0618 13.4915 17.7774 14.2853C16.5288 17.7711 13.236 20.0005 9.23077 20.0005C4.13276 20.0005 0 15.8677 0 10.7697Z" fill="#9FAAB3"/>
<path d="M9.23145 8.04196V2.72727C9.23145 1.22104 10.4699 -0.0418021 11.9442 0.266436C16.7694 1.27522 18.9079 4.96068 19.6609 8.07002C20.0154 9.53395 18.7796 10.7692 17.2734 10.7692H11.9587C10.4525 10.7692 9.23145 9.54819 9.23145 8.04196Z" fill="#9FAAB3"/>
</svg>
