<svg width="145" height="43" viewBox="0 0 145 43" fill="none" xmlns="http://www.w3.org/2000/svg">
<path d="M10.31 0.513062H42.4297V32.676C42.4297 34.0318 42.163 35.3743 41.6449 36.6268C41.1267 37.8794 40.3673 39.0175 39.4099 39.9762C38.4526 40.9348 37.316 41.6953 36.0651 42.2141C34.8143 42.7329 33.4736 43 32.1197 43H0V10.837C0 8.09891 1.08623 5.47298 3.01973 3.53687C4.95324 1.60076 7.57563 0.513062 10.31 0.513062Z" fill="url(#paint0_linear)"/>
<path d="M49.9215 33.156H51.3475L53.446 40.3088L55.5177 33.156H56.5938L58.652 40.3088L60.7506 33.156H62.1765L59.4323 42.5718H58.1274L56.0423 35.4594L53.9706 42.5718H52.6658L49.9215 33.156Z" fill="#000B20"/>
<path d="M64.1336 42.363C63.5968 42.1026 63.1478 41.6905 62.8422 41.1776C62.5328 40.6613 62.3781 40.0528 62.3781 39.3523C62.3781 38.6609 62.5306 38.0547 62.8355 37.5338C63.139 37.0142 63.588 36.5951 64.1269 36.3282C64.6829 36.0454 65.3241 35.9039 66.0506 35.9039C66.777 35.9039 67.4182 36.0454 67.9742 36.3282C68.5141 36.5962 68.965 37.0149 69.2724 37.5338C69.5818 38.0548 69.7365 38.6609 69.7365 39.3523C69.7365 40.0528 69.5818 40.6612 69.2724 41.1776C68.9654 41.6918 68.5139 42.1041 67.9742 42.363C67.4181 42.6368 66.7769 42.7737 66.0506 42.7738C65.3242 42.7738 64.6852 42.6369 64.1336 42.363ZM67.7187 41.0496C68.1311 40.6186 68.3373 40.0528 68.3375 39.3523C68.3375 38.6249 68.1312 38.0502 67.7187 37.6281C67.3061 37.2061 66.75 36.9951 66.0506 36.995C65.3511 36.995 64.795 37.2061 64.3825 37.6281C63.9699 38.0503 63.7637 38.6251 63.7637 39.3523C63.7637 40.0528 63.97 40.6186 64.3825 41.0496C64.7949 41.4806 65.3509 41.6962 66.0506 41.6962C66.7501 41.6962 67.3061 41.4806 67.7187 41.0496Z" fill="#000B20"/>
<path d="M71.2164 36.106H72.5347V37.2644C72.8037 36.8693 73.1826 36.5775 73.6714 36.3888C74.1601 36.2002 74.7273 36.1059 75.3731 36.106V37.1701C74.6824 37.1701 74.0905 37.2824 73.5974 37.5068C73.1041 37.7314 72.7633 38.0862 72.575 38.571V42.5717H71.2164V36.106Z" fill="#000B20"/>
<path d="M76.5835 32.6172H77.9422V42.5718H76.5835V32.6172Z" fill="#000B20"/>
<path d="M81.0695 42.3495C80.5603 42.0733 80.1403 41.6574 79.8588 41.1506C79.5673 40.6344 79.4215 40.0349 79.4216 39.3524C79.4216 38.6788 79.5673 38.0817 79.8588 37.5608C80.1409 37.0493 80.5603 36.627 81.0695 36.3417C81.5851 36.05 82.1658 35.9041 82.8115 35.9039C83.9773 35.9039 84.8606 36.2587 85.4616 36.9681V32.6172H86.8203V42.5718H85.502V41.6288C85.1432 42.0241 84.7509 42.3137 84.3249 42.4977C83.8989 42.6816 83.3944 42.7737 82.8115 42.7738C82.1658 42.7738 81.5852 42.6324 81.0695 42.3495ZM84.5805 41.2584C84.9939 40.9714 85.3031 40.5578 85.4616 40.0797V38.6249C85.3169 38.1418 85.0105 37.7233 84.594 37.4395C84.1679 37.1432 83.6769 36.995 83.1209 36.995C82.7052 36.9892 82.295 37.0912 81.9304 37.2914C81.5795 37.4857 81.2904 37.7751 81.0964 38.1266C80.8946 38.4858 80.7937 38.8944 80.7937 39.3524C80.7937 39.8104 80.8946 40.2189 81.0964 40.5781C81.2893 40.9287 81.5788 41.2162 81.9304 41.4066C82.2963 41.6026 82.706 41.7023 83.1209 41.6962C83.6769 41.6962 84.1634 41.5503 84.5805 41.2584Z" fill="#000B20"/>
<path d="M89.5846 42.6324C89.06 42.5381 88.6317 42.4101 88.2999 42.2485V41.0092C89.1717 41.4157 90.1229 41.6227 91.0845 41.6154C92.4836 41.6154 93.1831 41.1439 93.1831 40.201C93.1831 39.8777 93.1068 39.6173 92.9544 39.4197C92.8018 39.2222 92.5821 39.0494 92.2952 38.9011C92.0081 38.7529 91.5417 38.5486 90.8962 38.2882C90.0084 37.9291 89.3671 37.534 88.9725 37.1028C88.5778 36.6717 88.3805 36.1284 88.3806 35.4729C88.3731 35.0034 88.5144 34.5436 88.7842 34.1595C89.0533 33.7779 89.4299 33.4816 89.9142 33.2705C90.3985 33.0596 90.9545 32.954 91.5822 32.9539C92.0469 32.9497 92.5109 32.9903 92.9678 33.0752C93.3852 33.1576 93.7916 33.2887 94.1785 33.4658V34.6512C93.3983 34.3009 92.6091 34.1258 91.8109 34.1258C91.1653 34.1258 90.672 34.2426 90.3312 34.476C89.9903 34.7097 89.8199 35.042 89.82 35.4729C89.82 35.7692 89.894 36.0184 90.042 36.2205C90.1899 36.4225 90.4097 36.6021 90.7011 36.7593C90.9925 36.9165 91.4252 37.1118 91.9993 37.3453C92.6359 37.6058 93.1381 37.8528 93.5059 38.0861C93.8735 38.3198 94.1538 38.6049 94.3467 38.9415C94.5394 39.2782 94.6358 39.6981 94.6359 40.201C94.6359 41.0182 94.3444 41.6513 93.7615 42.1003C93.1784 42.5494 92.3175 42.7739 91.1787 42.7738C90.6442 42.7741 90.1107 42.7268 89.5846 42.6324Z" fill="#000B20"/>
<path d="M97.4068 42.3697C96.8667 42.1148 96.4147 41.7045 96.1087 41.191C95.7993 40.6748 95.6446 40.0619 95.6446 39.3523C95.6446 38.643 95.7993 38.0301 96.1087 37.5136C96.4181 36.9973 96.8717 36.5829 97.4136 36.3215C97.9739 36.0433 98.6174 35.9041 99.3439 35.9039C100.33 35.9039 101.12 36.097 101.712 36.4831V37.6012C101.128 37.1971 100.384 36.995 99.4785 36.995C98.743 36.995 98.1489 37.1948 97.696 37.5944C97.2431 37.9942 97.0166 38.5801 97.0167 39.3523C97.0167 40.1248 97.2409 40.7085 97.6893 41.1035C98.1377 41.4988 98.7251 41.6963 99.4515 41.6962C100.357 41.6962 101.138 41.4806 101.792 41.0496V42.1542C101.467 42.3747 101.105 42.5344 100.723 42.6256C100.324 42.7243 99.855 42.7737 99.3171 42.7738C98.5995 42.7738 97.9627 42.6391 97.4068 42.3697Z" fill="#000B20"/>
<path d="M103.272 36.106H104.59V37.2644C104.859 36.8693 105.238 36.5775 105.727 36.3888C106.216 36.2002 106.783 36.1059 107.429 36.106V37.1701C106.738 37.1701 106.146 37.2824 105.653 37.5068C105.16 37.7314 104.819 38.0862 104.631 38.571V42.5717H103.272V36.106Z" fill="#000B20"/>
<path d="M108.982 41.878C108.305 41.2809 107.967 40.439 107.967 39.3523C107.967 38.2928 108.269 37.4532 108.875 36.8334C109.48 36.2138 110.343 35.9039 111.464 35.9039C112.209 35.9039 112.841 36.0454 113.361 36.3282C113.862 36.5919 114.272 37.0002 114.538 37.5002C114.803 37.9986 114.935 38.5666 114.935 39.2041V39.8777H109.258C109.303 40.4885 109.561 40.9442 110.032 41.2449C110.503 41.5459 111.142 41.6963 111.949 41.6962C112.368 41.6956 112.787 41.6572 113.2 41.5817C113.581 41.5166 113.955 41.4151 114.316 41.2786V42.3697C114.029 42.4865 113.65 42.5831 113.18 42.6593C112.719 42.7347 112.254 42.773 111.787 42.7738C110.594 42.7738 109.66 42.4752 108.982 41.878ZM113.657 38.9213C113.639 38.3107 113.439 37.837 113.058 37.5002C112.677 37.1634 112.137 36.995 111.438 36.995C110.756 36.995 110.227 37.1701 109.85 37.5204C109.473 37.8706 109.276 38.3376 109.258 38.9213H113.657Z" fill="#000B20"/>
<path d="M117.161 41.878C116.484 41.2809 116.146 40.439 116.146 39.3523C116.146 38.2928 116.448 37.4532 117.054 36.8334C117.659 36.2138 118.522 35.9039 119.643 35.9039C120.388 35.9039 121.02 36.0454 121.54 36.3282C122.041 36.5919 122.451 37.0002 122.717 37.5002C122.982 37.9986 123.114 38.5666 123.114 39.2041V39.8777H117.437C117.482 40.4885 117.74 40.9442 118.211 41.2449C118.681 41.5459 119.32 41.6963 120.128 41.6962C120.547 41.6956 120.966 41.6572 121.379 41.5817C121.76 41.5166 122.133 41.4151 122.495 41.2786V42.3697C122.208 42.4865 121.829 42.5831 121.358 42.6593C120.898 42.7347 120.433 42.773 119.966 42.7738C118.773 42.7738 117.838 42.4752 117.161 41.878ZM121.836 38.9213C121.818 38.3107 121.618 37.837 121.237 37.5002C120.856 37.1634 120.316 36.995 119.616 36.995C118.935 36.995 118.406 37.1701 118.029 37.5204C117.652 37.8706 117.455 38.3376 117.437 38.9213H121.836Z" fill="#000B20"/>
<path d="M124.593 36.106H125.912V37.0354C126.206 36.6576 126.593 36.3629 127.035 36.1801C127.476 35.9966 127.949 35.9027 128.427 35.9039C129.288 35.9039 129.929 36.1329 130.351 36.5909C130.772 37.0489 130.983 37.6641 130.983 38.4364V42.5718H129.624V38.5711C129.624 37.5204 129.122 36.995 128.118 36.995C127.697 36.9925 127.283 37.0968 126.914 37.2981C126.542 37.5002 126.221 37.8078 125.952 38.2209V42.5718H124.593V36.106Z" fill="#000B20"/>
<path d="M133.411 41.878C132.734 41.2809 132.395 40.439 132.396 39.3523C132.396 38.2928 132.698 37.4532 133.304 36.8334C133.909 36.2138 134.772 35.9039 135.893 35.9039C136.637 35.9039 137.27 36.0454 137.79 36.3282C138.291 36.5919 138.701 37.0002 138.967 37.5002C139.231 37.9986 139.364 38.5666 139.364 39.2041V39.8777H133.687C133.732 40.4885 133.99 40.9442 134.46 41.2449C134.931 41.5459 135.57 41.6963 136.377 41.6962C136.797 41.6956 137.216 41.6572 137.628 41.5817C138.009 41.5166 138.383 41.4151 138.745 41.2786V42.3697C138.458 42.4865 138.079 42.5831 137.608 42.6593C137.148 42.7347 136.682 42.773 136.216 42.7738C135.023 42.7738 134.088 42.4752 133.411 41.878ZM138.086 38.9213C138.068 38.3107 137.868 37.837 137.487 37.5002C137.106 37.1634 136.566 36.995 135.866 36.995C135.185 36.995 134.655 37.1701 134.279 37.5204C133.902 37.8706 133.705 38.3376 133.687 38.9213H138.086Z" fill="#000B20"/>
<path d="M140.843 36.106H142.161V37.2644C142.431 36.8693 142.809 36.5775 143.298 36.3888C143.787 36.2002 144.354 36.1059 145 36.106V37.1701C144.309 37.1701 143.717 37.2824 143.224 37.5068C142.731 37.7314 142.39 38.0862 142.202 38.571V42.5717H140.843V36.106Z" fill="#000B20"/>
<path d="M49.9394 0.52533H56.305L60.3971 15.0248L64.3494 0.52533H68.7563L72.4638 15.0598L76.5209 0.52533H82.8865L76.1362 25.0064H70.4351L66.413 10.7871L62.4257 25.0064H56.6897L49.9394 0.52533Z" fill="url(#paint1_linear)"/>
<path d="M90.301 25.0939C88.785 24.8022 87.5375 24.3995 86.5585 23.8856V18.317C87.8053 18.9663 89.1267 19.4603 90.4933 19.7879C91.8574 20.1152 93.1573 20.2786 94.3931 20.2783C95.5353 20.2783 96.398 20.1032 96.9813 19.7529C97.5639 19.4027 97.8553 18.9007 97.8557 18.2469C97.8631 17.7768 97.6947 17.3208 97.3835 16.9686C97.0688 16.6069 96.6083 16.2742 96.002 15.9704C95.3954 15.6673 94.451 15.247 93.1689 14.7096C90.907 13.7525 89.2631 12.6901 88.2374 11.5225C87.2111 10.3553 86.6981 8.91933 86.6985 7.21471C86.6985 5.8138 87.089 4.56465 87.8701 3.46726C88.6511 2.37005 89.7411 1.51783 91.1404 0.910595C92.5394 0.3037 94.1483 0.000168095 95.967 0C97.459 0 98.788 0.116737 99.9542 0.350212C101.116 0.58255 102.244 0.959038 103.312 1.47096V6.89951C101.26 5.82584 99.1963 5.28882 97.1212 5.28845C96.002 5.28845 95.1101 5.4694 94.4456 5.83131C93.781 6.19358 93.4487 6.71308 93.4488 7.38982C93.4488 8.06731 93.7869 8.616 94.4631 9.0359C95.1391 9.45618 96.3865 10.0282 98.2054 10.752C99.8608 11.4295 101.149 12.0949 102.07 12.7483C102.991 13.4023 103.662 14.1611 104.081 15.0248C104.501 15.8889 104.711 16.9863 104.711 18.317C104.711 20.582 103.889 22.3506 102.245 23.623C100.601 24.8958 98.1472 25.5321 94.8828 25.5317C93.3451 25.5317 91.8109 25.3852 90.301 25.0939Z" fill="url(#paint2_linear)"/>
<path d="M20.3042 8.83881C18.52 9.03345 17.114 9.43645 15.5961 10.1883C14.1355 10.9118 13.1995 11.5991 11.9984 12.8302C10.6709 14.1907 9.74531 15.6464 9.1002 17.3881C8.70619 18.4519 8.39207 19.8541 8.33424 20.8072C8.27961 21.7076 8.31181 23.1728 8.39942 23.7735C8.51991 24.5839 8.71208 25.382 8.97366 26.1583C9.6242 28.1299 10.7418 29.9144 12.2309 31.3594C14.2383 33.3251 16.6421 34.5151 19.5686 34.9922C19.9474 35.054 20.0769 35.061 21.0666 35.074C22.2865 35.09 22.8179 35.0644 23.4341 34.9599C25.8925 34.5429 28.1206 33.5195 29.9372 31.973C30.3277 31.6405 31.1346 30.8256 31.4494 30.4456C32.5598 29.1055 33.3417 27.7017 33.882 26.0779C34.319 24.7648 34.4823 23.7842 34.5135 22.2863C34.5498 20.5473 34.3956 19.4298 33.9145 17.9455C33.4507 16.5146 32.824 15.2835 32.0007 14.186C30.9297 12.7584 29.6269 11.5673 28.1663 10.6805C26.5474 9.69766 24.4854 9.01498 22.7118 8.8747C22.3507 8.84613 20.4912 8.81842 20.3042 8.83881ZM22.5005 9.29225C22.5923 9.31517 22.6747 9.36605 22.7364 9.43787C22.859 9.57362 22.8595 9.65224 22.7385 9.79425C22.686 9.85588 22.6486 9.91588 22.6534 9.93091C22.6665 9.97259 22.8054 10.002 22.9659 9.99717C23.196 9.99019 23.2067 9.99343 23.2067 10.0702C23.2046 10.133 23.1862 10.1941 23.1534 10.2476C23.1205 10.3011 23.0744 10.3451 23.0194 10.3753C22.9068 10.4331 22.8493 10.5043 22.7401 10.7214C22.6257 10.9435 22.5432 11.1808 22.4953 11.4261C22.4816 11.5182 22.4565 11.6082 22.4205 11.6941C22.3825 11.7543 22.3428 11.9299 22.3095 12.1844C22.2903 12.3318 22.2116 12.5313 22.1425 12.6078C22.1046 12.6439 22.0605 12.673 22.0123 12.6935C21.9648 12.7139 21.9241 12.7474 21.8948 12.79C21.8446 12.8832 21.8566 13.0606 21.9201 13.1651C22.0468 13.3737 21.9655 13.5824 21.6418 13.8789C21.4171 14.0847 21.1579 14.2197 20.9382 14.2451C20.8366 14.2502 20.7395 14.2883 20.6614 14.3535C20.5472 14.4338 20.4279 14.5065 20.3042 14.5712C19.8816 14.7958 19.6221 15.006 19.6221 15.1239C19.6221 15.1445 19.5763 15.223 19.5204 15.2981C19.4423 15.409 19.3707 15.5244 19.3059 15.6437C19.1352 15.9599 19.1352 15.9599 19.0389 15.9109C18.9195 15.8501 18.7693 15.6598 18.7266 15.5151C18.6663 15.3106 18.625 14.872 18.6381 14.5746C18.6533 14.2289 18.7066 14.1062 18.9555 13.8431C19.0226 13.7769 19.0845 13.7057 19.1406 13.63C19.1252 13.593 19.1048 13.5583 19.0799 13.5269C18.9911 13.4013 19.0016 13.2027 19.1107 12.9427C19.2444 12.6245 19.2753 12.4818 19.2929 12.1014L19.3091 11.7503L19.2156 11.6485C19.1131 11.5368 19.0523 11.5244 18.8089 11.565L18.6778 11.5869L18.6938 11.3913C18.7053 11.2519 18.726 11.1756 18.7659 11.126C18.8516 11.0036 18.9163 10.8678 18.9574 10.7241C18.9978 10.5926 18.9747 10.6045 19.4883 10.4517C19.601 10.4182 19.613 10.4052 19.6756 10.2498C19.701 10.1801 19.7342 10.1136 19.7746 10.0515C19.812 10.014 19.8206 9.94699 19.7879 9.94699C19.7178 9.97755 19.6502 10.0138 19.586 10.0555C19.4847 10.1161 19.3776 10.1664 19.2663 10.2056C19.1474 10.2411 19.0861 10.2886 18.845 10.5325C18.6886 10.6906 18.5127 10.8573 18.4504 10.9063C18.3666 10.9797 18.2924 11.0634 18.2297 11.1555C18.0798 11.3779 18.0275 11.3973 17.8672 11.2903C17.8155 11.2518 17.7569 11.2233 17.6947 11.2064C17.6789 11.2051 17.6636 11.2006 17.6496 11.1932C17.6356 11.1859 17.6232 11.1758 17.6131 11.1635C17.5864 11.1344 17.5535 11.1118 17.5168 11.0974C17.393 11.0505 17.4633 10.9187 17.7442 10.671C17.8211 10.6067 17.8944 10.5381 17.9635 10.4655C17.9635 10.4588 17.8967 10.4618 17.8137 10.4722C17.6639 10.4909 17.6639 10.4909 17.6838 10.4266C17.7284 10.2819 17.9951 9.76473 18.0518 9.71274C18.1325 9.6388 18.3086 9.58467 18.7687 9.49237C19.5311 9.33944 20.3567 9.23684 20.5316 9.27328C20.6359 9.29501 20.6712 9.37721 20.6012 9.43564C20.5213 9.50229 20.5557 9.52536 20.7135 9.51107C20.8874 9.49532 20.9596 9.52103 20.9596 9.59865C20.9596 9.68708 21.0113 9.68708 21.0599 9.59865C21.147 9.44055 21.1659 9.42197 21.2031 9.45824C21.2571 9.51101 21.3101 9.50093 21.5374 9.39464C21.6525 9.34087 21.7975 9.2797 21.8558 9.26041C21.9801 9.2192 22.2918 9.2346 22.5005 9.29225L22.5005 9.29225ZM17.5101 9.96708C17.5192 10.0388 17.5505 10.1058 17.5997 10.1587C17.654 10.2149 17.6698 10.2519 17.6569 10.2926C17.6345 10.3641 17.5115 10.4524 17.4045 10.4738C17.2819 10.4983 17.2688 10.4293 17.3721 10.3034C17.5287 10.1125 17.4499 10.1068 17.252 10.2947C17.1744 10.3684 17.0969 10.4293 17.0808 10.4293C17.0194 10.4293 17.087 10.0756 17.1667 9.97914C17.2111 9.92555 17.4018 9.83799 17.4553 9.84668C17.4808 9.85083 17.5008 9.89474 17.5101 9.96708H17.5101ZM25.6276 10.4174C25.6779 10.4426 25.7205 10.481 25.7507 10.5284C25.7859 10.594 25.7828 10.6022 25.6972 10.6678C25.6478 10.7056 25.5634 10.7754 25.5126 10.8205L25.419 10.9036L25.53 11.1113C25.5755 11.1888 25.6128 11.271 25.641 11.3564C25.641 11.4141 25.4966 11.4015 25.4136 11.3365C25.3305 11.2714 25.3167 11.2814 25.2529 11.4529C25.1922 11.6164 25.1578 11.6447 25.0685 11.6047C25.0156 11.5809 24.999 11.5534 24.999 11.4891C25 11.4606 24.9933 11.4324 24.9797 11.4074C24.966 11.3824 24.9459 11.3616 24.9214 11.3471C24.826 11.2763 24.7244 11.0242 24.7361 10.8875C24.7448 10.7869 24.7475 10.7852 24.9776 10.7391C25.0382 10.7192 25.0887 10.6763 25.118 10.6196C25.1486 10.5675 25.1925 10.5245 25.2451 10.495C25.2901 10.4776 25.3324 10.454 25.3708 10.4248C25.4495 10.3635 25.5126 10.3617 25.6276 10.4174L25.6276 10.4174ZM16.1847 10.5177C16.1327 10.6839 16.1342 10.6973 16.206 10.6973C16.2722 10.6891 16.3364 10.6697 16.396 10.6397C16.5052 10.5874 16.5297 10.585 16.6608 10.6142C16.7275 10.6269 16.792 10.6495 16.8521 10.6812C16.8956 10.7136 16.8918 10.7267 16.7986 10.8688C16.7136 10.9982 16.6957 11.051 16.6818 11.2144C16.6574 11.5011 16.6192 11.5388 16.516 11.3779C16.3631 11.1394 16.3384 11.0891 16.3081 10.9545C16.2628 10.7535 16.2167 10.7223 16.1539 10.85C16.0914 10.9773 15.9947 11.0326 15.7406 11.0865C15.4383 11.1507 15.2375 11.1504 15.1907 11.0858C15.1009 10.9617 15.227 10.8111 15.5533 10.6527C15.7138 10.5748 15.7593 10.5627 15.8088 10.5847C15.858 10.6066 15.8904 10.5974 15.9867 10.5338C16.1338 10.4366 16.2122 10.4303 16.1847 10.5177ZM17.2898 11.067C17.2993 11.2265 17.3189 11.2439 17.5222 11.273C17.7014 11.2986 17.7495 11.3277 17.7495 11.41C17.7495 11.7202 17.3831 11.8625 17.0647 11.6761C16.9149 11.5883 16.8668 11.5164 16.8668 11.3806C16.8668 11.1957 17.0964 10.8987 17.2252 10.917C17.2729 10.9238 17.2827 10.9465 17.2898 11.067ZM14.7802 11.2064C14.848 11.2421 14.8471 11.2919 14.7775 11.3558C14.7412 11.3916 14.7101 11.4324 14.6853 11.477C14.6547 11.536 14.6547 11.5545 14.6853 11.5976C14.7157 11.6405 14.715 11.6557 14.6812 11.6941C14.66 11.7182 14.6499 11.7535 14.6598 11.7691C14.6959 11.8261 14.807 11.7911 15.0424 11.6484C15.3233 11.4782 15.449 11.4384 15.449 11.5199C15.449 11.5492 15.3559 11.7182 15.2439 11.8923C14.8682 12.4765 14.8309 12.5508 14.8 12.7766C14.7751 12.9588 14.7649 12.9831 14.7026 13.007C14.6652 13.0215 14.6059 13.0468 14.5742 13.062C14.5312 13.0826 14.486 13.0782 14.4057 13.0455C14.2666 12.989 14.2126 12.9903 14.1355 13.0521L14.0713 13.1035L14.1249 13.2053C14.1528 13.2625 14.1957 13.3111 14.2488 13.346C14.302 13.3809 14.3636 13.4008 14.4271 13.4036C14.5505 13.4036 14.6061 13.3688 14.8081 13.1651C14.9038 13.0687 15.0571 12.9213 15.1454 12.8409C15.2834 12.7152 15.3161 12.6667 15.3674 12.5113C15.3955 12.4213 15.4361 12.3356 15.4878 12.2568C15.5375 12.1933 15.5837 12.1271 15.6261 12.0585C15.7226 11.9031 15.9887 11.5855 16.0241 11.5835C16.0776 11.5805 16.626 11.752 16.626 11.7718C16.626 11.8108 16.3772 11.9835 16.3211 11.9835C16.2327 11.9835 16.08 12.1013 15.9879 12.2407C15.9174 12.3616 15.8566 12.4879 15.8061 12.6185C15.7427 12.7793 15.6831 12.8882 15.6443 12.9141C15.5655 12.9667 15.5673 13.0365 15.6511 13.1785C15.716 13.2884 15.7172 13.2984 15.677 13.3929C15.6292 13.5054 15.6234 13.5644 15.6603 13.5644C15.6993 13.5644 16.0109 13.2696 16.0965 13.1517C16.1939 13.0178 16.191 12.9837 16.0776 12.9287C15.967 12.875 15.9637 12.8516 16.0506 12.7337C16.0844 12.6917 16.1074 12.642 16.1178 12.589C16.1178 12.4121 16.4013 12.0949 16.7036 11.9337C16.8882 11.8353 16.9981 11.8246 17.0186 11.9031C17.0301 11.9471 17.054 11.9567 17.153 11.9567C17.2921 11.9567 17.4439 12.0205 17.4843 12.096C17.5015 12.1282 17.5046 12.2447 17.4927 12.4135C17.4741 12.6788 17.4744 12.6805 17.5462 12.7471C17.5997 12.7967 17.614 12.8308 17.6011 12.8784C17.5873 12.9295 17.6024 12.9555 17.6746 13.0049C17.7897 13.0836 17.803 13.1042 17.803 13.2026C17.8041 13.3286 17.7609 13.4509 17.6811 13.5483C17.5966 13.6394 17.5962 13.7246 17.68 13.8039C17.7362 13.8571 17.7462 13.89 17.7429 14.0105C17.74 14.1124 17.752 14.1682 17.7843 14.2035C17.8088 14.2298 17.8246 14.263 17.8298 14.2986C17.8298 14.3602 17.5652 14.6362 17.5061 14.6362C17.481 14.6362 17.4465 14.6014 17.4292 14.5585C17.3836 14.446 17.3024 14.3767 17.2627 14.4165C17.2279 14.4514 17.2263 14.5424 17.2558 14.805L17.2761 14.9846L17.1744 15.0803C17.0781 15.171 16.8772 15.2793 16.8052 15.2793C16.7879 15.2793 16.7469 15.2338 16.7161 15.1802C16.6343 15.0381 16.3961 14.7774 16.305 14.7301C16.2557 14.7059 16.202 14.6922 16.1472 14.6898C16.0509 14.6898 16.0174 14.6148 16.0635 14.5022C16.102 14.4082 16.1632 14.3846 16.305 14.4092C16.4064 14.4267 16.4146 14.4218 16.599 14.2343C16.8889 13.9395 16.931 13.8649 16.9141 13.6769C16.8963 13.4786 16.8033 13.2618 16.6982 13.1736C16.6738 13.1498 16.6441 13.132 16.6116 13.1217C16.5791 13.1114 16.5447 13.1089 16.511 13.1142C16.3923 13.1231 16.4329 13.0446 16.1394 13.8323L15.9947 14.2209L15.7941 14.2375C15.4918 14.2626 15.484 14.272 15.6104 14.4594C15.773 14.7004 15.7486 14.7592 15.4704 14.7961C15.3768 14.8085 15.2632 14.8268 15.2149 14.8372C15.1347 14.8545 15.128 14.8505 15.128 14.7849C15.128 14.7459 15.1779 14.5933 15.239 14.446C15.3 14.2986 15.344 14.1722 15.3366 14.1651C15.3112 14.1405 14.9247 14.416 14.7133 14.6093C14.5956 14.7169 14.403 14.8822 14.2853 14.9765C14.1761 15.0627 14.0741 15.1577 13.9804 15.2605C13.8371 15.4379 13.7318 15.6866 13.716 15.8849L13.7022 16.0591L14.0633 16.4262L14.4244 16.7933L14.3843 17.0679C14.3534 17.2796 14.3511 17.3579 14.3745 17.4096C14.4389 17.5517 14.5464 17.4551 14.6726 17.1416C14.7523 16.9434 14.7802 16.9067 15.0424 16.6553C15.3607 16.3501 15.3751 16.3116 15.2468 16.1073L15.1761 15.9947L15.3099 15.8723C15.4627 15.7324 15.4993 15.6678 15.5818 15.3918C15.6587 15.1346 15.7128 15.0807 15.8716 15.1028C16.0375 15.1258 16.1487 15.1962 16.2052 15.3141C16.2162 15.3436 16.2342 15.3699 16.2576 15.3908C16.2811 15.4118 16.3093 15.4266 16.3398 15.4341C16.4538 15.4645 16.4653 15.5526 16.3779 15.7268C16.2918 15.8983 16.271 15.9943 16.3057 16.0591C16.3781 16.1942 16.6504 16.0483 16.7907 15.7991C16.8359 15.7188 16.8834 15.6616 16.8975 15.6705C16.9123 15.6799 16.9198 15.8742 16.9155 16.1341C16.9074 16.6164 16.9165 16.6573 17.0734 16.8442C17.1797 16.9707 17.1928 17.0344 17.2159 17.5382C17.238 18.0205 17.2549 18.0928 17.3456 18.0928C17.4222 18.0928 17.4553 18.1518 17.4553 18.2884C17.4553 18.6154 17.248 18.7247 17.0139 18.5213C16.9149 18.4353 16.8704 18.4144 16.7865 18.4144C16.6281 18.4144 16.6448 18.3608 16.8952 18.066C17.0204 17.9187 17.1343 17.749 17.1343 17.7097C17.1343 17.6734 16.9952 17.7207 16.7731 17.8323C16.4709 17.9843 16.4378 17.9907 16.206 17.9423C16.0134 17.9021 15.8235 17.909 15.8235 17.9562C15.8235 17.9694 15.8783 18.0147 15.9452 18.0567C16.0495 18.1221 16.0646 18.1426 16.0506 18.2C16.014 18.3501 16.0224 18.3711 16.1525 18.4567C16.3344 18.5762 16.4388 18.681 16.4388 18.744C16.4388 18.8083 16.3644 18.8967 16.3104 18.8967C16.2097 18.9252 16.1113 18.9612 16.0161 19.0046C15.7272 19.126 15.7235 19.1266 15.6175 19.0713C15.5292 19.0252 15.3091 19.0186 15.2323 19.0597C15.2046 19.0746 15.1277 19.1941 15.0631 19.3228C14.9394 19.5693 14.9135 19.5934 14.7722 19.5934C14.7083 19.5934 14.6611 19.6229 14.5662 19.722C14.4335 19.8606 14.2041 20.2472 14.1655 20.3973C14.0779 20.7376 14.0936 20.7132 13.8493 20.8876C13.7097 20.9885 13.5766 21.098 13.4507 21.2156C13.2333 21.4278 13.2186 21.5012 13.3344 21.7987C13.4772 22.1658 13.499 22.4069 13.3892 22.4069C13.3103 22.4069 13.1529 22.1952 13.0744 21.9836C12.9592 21.6727 12.7628 21.5113 12.4984 21.51C12.3512 21.5093 12.3388 21.5146 12.2576 21.6124L12.172 21.7156L11.8243 21.7129C11.5139 21.7105 11.4635 21.7168 11.3561 21.7711C11.2142 21.8428 11.1427 21.9675 11.0608 22.2863C10.9575 22.6883 10.992 23.1056 11.1465 23.3233C11.2625 23.4868 11.6346 23.5934 11.7922 23.5083C11.83 23.4879 11.8985 23.401 11.9423 23.318C12.0455 23.1224 12.0854 23.0889 12.2737 23.0401L12.4315 22.9991L12.4221 23.1813C12.4197 23.3037 12.3865 23.4235 12.3257 23.5297C12.2233 23.7253 12.2164 23.8139 12.3004 23.8579C12.3329 23.8749 12.485 23.9019 12.6402 23.9182L12.921 23.9477L12.9282 24.0683C12.9449 24.3469 12.9895 24.6349 13.0273 24.7087C13.0852 24.8213 13.1912 24.8489 13.6299 24.8655L14.0178 24.8802L14.2051 24.6792C14.2786 24.5959 14.3592 24.5191 14.4458 24.4496C14.5401 24.3992 14.9461 24.5252 15.0798 24.6465L15.1868 24.7435L15.4169 24.7252C15.7031 24.7025 15.8231 24.6727 15.9144 24.6019L15.984 24.5479L16.0107 24.6176C16.0257 24.6576 16.0347 24.6995 16.0375 24.7422C16.0375 24.7745 16.1124 24.8717 16.2194 24.9783C16.4218 25.1799 16.6635 25.3158 16.8828 25.3512C16.9623 25.3648 17.0391 25.3913 17.1102 25.4296C17.2925 25.5532 17.4386 25.7234 17.5331 25.9225L17.6131 26.102L17.9422 26.2628C18.3033 26.4393 18.561 26.5334 18.6831 26.5334C18.9854 26.5334 19.5906 26.8962 19.662 27.1203C19.671 27.1484 19.6524 27.2408 19.6205 27.3266C19.5015 27.6464 19.463 27.8571 19.4094 28.4815C19.3792 28.8325 19.3422 29.1626 19.3271 29.2157C19.2919 29.3391 19.2315 29.39 19.0924 29.4136C19.0035 29.4339 18.9211 29.4764 18.853 29.5372C18.7835 29.5944 18.7102 29.6417 18.6912 29.6417C18.6486 29.6417 18.5521 29.7998 18.5521 29.8695C18.5561 29.9162 18.5664 29.9622 18.5829 30.0061C18.6256 30.1248 18.5677 30.5126 18.4821 30.6814C18.4342 30.7605 18.4177 30.8546 18.4357 30.9453L18.4531 31.0833L18.3354 31.1691C18.2712 31.2158 18.2001 31.2646 18.1789 31.2763C18.1459 31.2945 18.1474 31.3191 18.1892 31.4424C18.2691 31.6782 18.1929 31.8942 18.0171 31.9299C17.9422 31.9451 17.9368 31.9542 17.9368 32.0667C17.9368 32.1793 17.9323 32.1873 17.8686 32.1873C17.8516 32.1865 17.8346 32.1903 17.8196 32.1983C17.8046 32.2063 17.792 32.2183 17.7832 32.2329C17.7671 32.2753 17.8057 32.3169 17.9689 32.4329C18.025 32.4728 18.0275 32.4847 17.997 32.5678C17.9706 32.6633 17.9535 32.7611 17.9462 32.8599L17.9288 33.0608L18.0492 33.1975C18.1583 33.3214 18.1735 33.3556 18.2126 33.5646C18.2617 33.8273 18.2688 33.8433 18.4534 34.1085C18.528 34.2157 18.5811 34.3126 18.5708 34.3229C18.5449 34.3489 18.2578 34.2875 18.1134 34.2252C18.018 34.1752 17.9342 34.1058 17.8672 34.0215C17.7943 33.9357 17.6798 33.8056 17.6091 33.7281C17.5382 33.6503 17.482 33.5775 17.482 33.5633C17.4401 33.48 17.3909 33.4006 17.3349 33.3261C17.2083 33.1439 17.1878 33.0975 17.1878 32.9925C17.1878 32.8784 17.1798 32.8646 17.062 32.7771C16.9096 32.6637 16.8318 32.5365 16.8259 32.391C16.8196 32.2328 16.7957 32.1712 16.6452 31.9247C16.5223 31.7235 16.5093 31.6862 16.491 31.4826C16.4719 31.27 16.416 31.0887 16.2688 30.7618C16.1534 30.4787 16.0585 30.1877 15.9848 29.8909C15.8023 29.1621 15.6181 28.8766 15.1413 28.5836C14.6732 28.296 14.5 28.146 14.2466 27.8089C14.1395 27.6675 14.0238 27.5328 13.9001 27.4056L13.7369 27.2462V26.9675C13.7432 26.811 13.7243 26.6545 13.6808 26.504L13.6246 26.3191L13.6971 26.1931C13.921 25.8046 13.9348 25.772 13.9329 25.6358C13.9306 25.4697 13.8557 25.3151 13.6979 25.1508C13.5795 25.0275 13.5229 25.0163 13.5229 25.116C13.5229 25.2132 13.4427 25.2054 13.1939 25.0837C12.8809 24.9308 12.6815 24.7827 12.537 24.5961C12.4687 24.5091 12.3891 24.4315 12.3004 24.3654C12.1247 24.2477 11.6985 24.0876 11.2277 23.9624C10.7596 23.8379 10.4893 23.7327 10.262 23.5862C10.0801 23.469 10.037 23.4118 9.99349 23.2296C9.95049 23.0496 9.85795 22.8732 9.48177 22.2542C8.95517 21.3877 8.89834 21.3967 9.24587 22.2917C9.45189 22.8223 9.455 22.9268 9.25788 22.6963C9.12956 22.5463 8.90536 22.0984 8.88769 21.9568C8.87314 21.8737 8.84726 21.793 8.81078 21.7169C8.75166 21.5972 8.74792 21.5602 8.74792 21.0939C8.74792 20.5443 8.7963 20.1534 8.96479 19.3415C9.40853 17.2032 10.4284 15.1607 11.8427 13.5778C12.2377 13.1357 13.0232 12.3573 13.0735 12.3581C13.0925 12.3583 13.1371 12.4256 13.1717 12.506C13.2456 12.6775 13.3618 12.7873 13.4694 12.7873C13.5586 12.7873 13.5764 12.7498 13.5764 12.5622C13.5764 12.4363 13.5865 12.4134 13.6808 12.324C13.7406 12.2662 13.786 12.195 13.8131 12.1162C13.8403 12.0375 13.8486 11.9534 13.8372 11.8709C13.824 11.7718 13.8309 11.7533 13.9081 11.6815C14.0472 11.5523 14.6173 11.1796 14.6759 11.1796C14.7121 11.1813 14.7476 11.1904 14.7802 11.2064L14.7802 11.2064ZM28.6719 11.5052C28.6914 11.5374 28.6811 11.5922 28.6339 11.7075C28.5123 12.0049 28.5722 12.456 28.7632 12.6801C28.884 12.8219 29.1293 12.9387 29.4396 13.0021C29.8783 13.0919 29.9396 13.068 29.8249 12.8516C29.7865 12.7793 29.7309 12.6746 29.7011 12.6185C29.6269 12.4792 29.6036 12.2782 29.6616 12.2782C29.7339 12.2782 30.3672 12.9133 30.5061 13.1249C30.6098 13.283 30.6375 13.3104 30.6594 13.2763C30.6833 13.2392 30.6925 13.2415 30.745 13.2978C30.7752 13.3277 30.7957 13.3659 30.8039 13.4076C30.8056 13.4223 30.8116 13.4362 30.8211 13.4475C30.8306 13.4588 30.8432 13.4671 30.8574 13.4713C30.9652 13.505 31.5976 14.2879 31.9825 14.864C32.4312 15.5357 32.9652 16.5467 33.235 17.2354C33.6629 18.328 33.9006 19.2826 34.0556 20.5312C34.149 21.2842 34.1324 22.9919 34.0255 23.61C33.9917 23.8057 33.9391 23.9712 33.9352 23.8941C33.9251 23.6922 33.8544 23.4305 33.7151 23.0795C33.5237 22.5972 33.4549 22.5062 33.2596 22.4765C33.1419 22.4587 33.1353 22.4528 33.1078 22.3426C33.0694 22.1888 32.853 21.9887 32.5775 21.8524L32.3715 21.7504L31.9421 21.7411C31.5757 21.7331 31.5005 21.7242 31.4285 21.6808C31.3729 21.6472 31.2587 21.6213 31.0928 21.6048C30.7798 21.5735 30.6231 21.5191 30.4775 21.3909C30.3117 21.2449 30.2453 21.2134 30.2241 21.2708C30.1967 21.3451 30.2983 21.4949 30.4989 21.6758C30.6059 21.7724 30.6987 21.8782 30.7076 21.9139C30.7206 21.9661 30.741 21.9782 30.8159 21.9782C30.8944 21.9718 30.9715 21.9539 31.0447 21.9249C31.1838 21.8706 31.3042 21.8577 31.355 21.8916C31.3929 21.9297 31.4262 21.9723 31.4539 22.0184C31.5052 22.091 31.5675 22.1552 31.6385 22.2086C31.7322 22.2762 31.7551 22.3102 31.7618 22.3908C31.7728 22.5231 31.6716 22.7338 31.5123 22.9107C31.2763 23.1725 30.4053 23.6971 29.988 23.8288C29.7178 23.914 29.6536 23.9518 29.6536 24.0254C29.6612 24.0726 29.6843 24.116 29.7192 24.1486C29.782 24.2077 29.7927 24.2091 29.98 24.1808C30.087 24.1646 30.2321 24.144 30.301 24.1352C30.3807 24.1226 30.4571 24.0941 30.5257 24.0514C30.6541 23.9636 30.6966 23.9825 30.6957 24.1272C30.6946 24.2897 30.6031 24.4916 30.3763 24.8319C30.158 25.1719 29.908 25.4904 29.6297 25.7832C29.4613 25.9681 29.2664 26.1949 29.1947 26.2896C29.0446 26.4876 29.0411 26.5147 29.1068 26.9622C29.1307 27.1309 29.1455 27.3009 29.1511 27.4713C29.1556 27.8036 29.1133 27.8813 28.704 28.2912L28.3642 28.6315L28.3818 28.7548C28.438 29.1487 28.4484 29.103 28.2535 29.3202C28.1501 29.4354 28.0615 29.5642 28.0377 29.6337C27.9489 29.8936 27.4827 30.4858 27.2889 30.5849C27.0026 30.7313 26.6225 30.8184 26.4302 30.7817C26.3125 30.7592 26.2613 30.6868 26.2385 30.5099C26.2063 30.363 26.1617 30.2191 26.1051 30.0798C26.0408 29.9148 25.9457 29.627 25.8925 29.4367C25.8393 29.2465 25.7483 28.9425 25.6892 28.7575C25.5924 28.4547 25.5832 28.402 25.5929 28.2082C25.6022 28.0206 25.6166 27.97 25.7079 27.8036L25.8122 27.6133L25.7761 27.4633C25.7532 27.365 25.7469 27.2635 25.7573 27.1631C25.778 26.9832 25.7556 26.9327 25.5148 26.6165C25.2087 26.2146 25.1583 26.0681 25.2281 25.7832C25.2793 25.5742 25.2694 25.3716 25.205 25.3081C25.1814 25.2849 25.0926 25.2564 25.007 25.2446C24.8709 25.2179 24.7396 25.1704 24.6178 25.1039L24.3837 24.9847L24.2607 25.0637C24.0807 25.1793 23.8915 25.2143 23.3538 25.2316L22.8696 25.2473L22.7386 25.1133C22.6673 25.0396 22.5835 24.9793 22.4911 24.9351C22.3941 24.8982 22.3576 24.8614 22.2718 24.714C22.194 24.5909 22.1019 24.4774 21.9976 24.3758C21.7793 24.1702 21.7622 24.1084 21.7622 23.5297C21.7646 23.33 21.7543 23.1304 21.7314 22.9321C21.7032 22.7821 21.706 22.7555 21.7659 22.6079C21.9057 22.2582 22.1241 21.9455 22.4042 21.694C22.4776 21.6273 22.5344 21.5443 22.57 21.4517C22.6226 21.3306 22.6874 21.2152 22.7634 21.1073C22.9704 20.8072 23.0462 20.6557 23.0462 20.542C23.0462 20.4409 23.0301 20.4208 22.7653 20.1902L22.6369 20.0784L22.6544 19.9042C22.679 19.6604 22.7668 19.3917 22.8532 19.296C22.9206 19.2213 22.9472 19.2129 23.2254 19.1781C23.3913 19.1573 23.5477 19.1283 23.5759 19.1132C23.6362 19.0759 23.6804 19.0173 23.6998 18.949C23.7192 18.8806 23.7124 18.8075 23.6807 18.744C23.6301 18.68 23.5704 18.6237 23.5036 18.5769C23.2843 18.4128 23.2701 18.3608 23.4448 18.3608C23.5816 18.3608 23.7845 18.2532 23.9637 18.0855C24.1055 17.9528 24.1162 17.9341 24.1162 17.8195C24.1162 17.6982 24.1189 17.6944 24.2847 17.5758C24.4667 17.4458 24.7347 17.1717 24.7958 17.0532C24.8248 16.9784 24.8433 16.8999 24.8506 16.8201C24.8752 16.595 24.8888 16.5387 24.9187 16.5387C24.9332 16.5387 24.9457 16.5843 24.946 16.6378C24.9474 16.8763 25.0339 17.0463 25.1836 17.1044C25.2579 17.1332 25.7293 17.0473 25.9513 16.9645C26.1424 16.8932 26.202 16.8201 26.2287 16.6244C26.2349 16.5608 26.2477 16.4979 26.267 16.4369C26.3048 16.4127 26.348 16.398 26.3927 16.394L26.5024 16.3752L26.4925 16.1984C26.481 15.9921 26.481 15.9921 26.7752 15.9552C27.0026 15.9268 27.0931 15.8755 27.0367 15.8072C27.0065 15.7707 26.8689 15.7379 26.5505 15.6914C26.267 15.65 26.0958 15.517 26.0958 15.3383C26.0958 15.2853 26.1404 15.1118 26.1947 14.9537C26.2785 14.7099 26.2889 14.655 26.262 14.596C26.2267 14.5183 26.1489 14.5086 26.0902 14.5746C25.9535 14.7282 25.6945 15.3597 25.6945 15.5392C25.7069 15.6183 25.7334 15.6946 25.7727 15.7643C25.8907 15.9867 25.8924 16.008 25.8022 16.1394C25.7417 16.236 25.6908 16.3383 25.6504 16.4449C25.5563 16.6941 25.5007 16.7531 25.3601 16.7531H25.2478L25.2349 16.6191C25.222 16.4851 25.0638 16.1328 25.0097 16.1175C24.9953 16.1135 24.9348 16.1541 24.8786 16.2056C24.7689 16.3061 24.6968 16.3354 24.5951 16.3205C24.5129 16.3086 24.3976 16.0778 24.3546 15.8393C24.3256 15.6786 24.3275 15.649 24.373 15.5566C24.4166 15.4821 24.4749 15.4171 24.5442 15.3657C24.9345 15.0813 25.0535 14.8908 25.1876 14.3361C25.3113 13.8243 25.3126 13.821 25.4255 13.693C25.5493 13.5527 25.8737 13.3217 26.061 13.2406C26.1947 13.1826 26.4858 13.1606 26.5987 13.2C26.6464 13.2264 26.684 13.2678 26.7058 13.3179C26.7642 13.4414 26.8689 13.4923 27.1845 13.5507C27.5189 13.6126 27.6259 13.685 27.7869 13.9583C28.008 14.3334 28.1067 14.3597 28.0482 14.028C28.0071 13.7948 28.0196 13.6453 28.0833 13.6074C28.1324 13.5783 28.167 13.6073 28.2909 13.7814L28.3348 13.8431L28.4298 13.7774C28.4817 13.7415 28.5889 13.659 28.6665 13.5952C28.7896 13.494 28.8199 13.4809 28.8966 13.4961C28.945 13.5056 28.9952 13.501 29.041 13.4827C29.0987 13.4582 29.1595 13.442 29.2216 13.4344C29.3393 13.4179 29.3463 13.412 29.3527 13.3232C29.3638 13.1703 29.338 13.1554 29.0276 13.1352C28.8725 13.1251 28.7294 13.1025 28.708 13.0847C28.6558 13.055 28.5994 13.0333 28.5408 13.0204C28.35 12.9727 28.3066 12.8838 28.3119 12.5515C28.3127 12.3801 28.3038 12.2088 28.2853 12.0384C28.2576 11.8106 28.2595 11.7707 28.304 11.6418C28.3298 11.5659 28.3672 11.4944 28.4151 11.4301C28.4756 11.3629 28.4779 11.3626 28.5608 11.4114C28.6034 11.4354 28.641 11.4672 28.6719 11.5051L28.6719 11.5052ZM22.1032 14.5732L22.4577 14.5907V14.7434C22.4577 14.947 22.3733 15.1087 22.2276 15.1843C22.0404 15.2814 21.6718 15.2374 21.5875 15.1078C21.5359 15.0286 21.4816 14.6925 21.5052 14.5987C21.5232 14.5272 21.5294 14.5244 21.6364 14.5398C21.6983 14.5486 21.9079 14.5636 22.1032 14.5732ZM23.4876 16.3618C23.5263 16.3973 23.5538 16.4434 23.5667 16.4943C23.5797 16.5453 23.5774 16.5989 23.5603 16.6486C23.5305 16.7278 23.558 16.7906 23.7376 17.0532C23.7697 17.0966 23.798 17.1428 23.822 17.1912C23.8439 17.2393 23.8698 17.2854 23.8995 17.3292C24.0294 17.5355 24.0337 17.7713 23.9076 17.7713C23.7835 17.7713 23.6508 17.8395 23.4903 17.9857C23.3939 18.0734 23.2967 18.1464 23.2762 18.1464C23.2193 18.1464 23.2032 18.0687 23.2208 17.8785C23.2432 17.6373 23.2973 17.4544 23.3786 17.3452C23.4775 17.2123 23.4667 17.1496 23.3161 16.9835C23.1582 16.8093 23.1263 16.6875 23.1941 16.5173C23.2357 16.4128 23.3433 16.2975 23.3993 16.2975C23.4332 16.312 23.4634 16.334 23.4876 16.3618V16.3618ZM23.1162 17.222C23.0961 17.439 23.0152 17.6227 22.9044 17.7033C22.7637 17.8055 22.6736 17.6748 22.6725 17.3667C22.6717 17.1309 22.6743 17.1271 22.9044 17.0342C23.1133 16.9498 23.1393 16.9728 23.1162 17.222ZM13.7369 22.1095C13.7339 22.1424 13.7186 22.173 13.6941 22.1952C13.6594 22.2235 13.6471 22.223 13.6285 22.1926C13.5994 22.1447 13.6433 22.0586 13.6968 22.0586C13.7086 22.0605 13.7193 22.0669 13.7267 22.0763C13.7341 22.0857 13.7378 22.0975 13.7369 22.1095ZM13.6487 22.561C13.6411 22.5876 13.6353 22.5731 13.6353 22.5275C13.6353 22.482 13.6411 22.4616 13.6487 22.4806C13.6563 22.5069 13.6563 22.5348 13.6487 22.561ZM13.9776 22.5329C14.0363 22.6079 14.0749 22.7219 14.0499 22.7466C14.0347 22.7617 13.8707 22.5195 13.8707 22.482C13.8707 22.4382 13.9231 22.4632 13.9776 22.5329ZM13.7209 22.9718C13.975 23.0963 14.1649 23.2054 14.1649 23.2269C14.1649 23.2791 14.0579 23.3 13.86 23.2867C13.7075 23.2764 13.6771 23.2645 13.5818 23.1783C13.4128 23.0254 13.2741 22.9674 13.0227 22.9444C12.7231 22.917 12.6978 22.8808 12.921 22.7983C13.1453 22.7154 13.2394 22.7358 13.7209 22.9718ZM14.7401 23.3411C14.8022 23.3704 14.8591 23.4096 14.9086 23.4573L14.9701 23.5243L14.8685 23.5431C14.8121 23.5535 14.6358 23.5684 14.4726 23.5765C14.2345 23.5885 14.1681 23.5834 14.1248 23.5498C14.0713 23.5082 14.0713 23.5082 14.1457 23.4305C14.2792 23.2912 14.5448 23.2512 14.7401 23.3411L14.7401 23.3411ZM15.3156 23.4921C15.3603 23.5448 15.3527 23.5498 15.1949 23.5708L15.0611 23.5886L15.1414 23.5203C15.2323 23.443 15.2688 23.4371 15.3156 23.4921ZM13.8057 23.5886C13.8298 23.628 13.7904 23.6623 13.7102 23.6718C13.6594 23.6778 13.6414 23.6652 13.6353 23.6194C13.6286 23.5692 13.6406 23.5591 13.7075 23.5591C13.725 23.5573 13.7427 23.559 13.7596 23.5641C13.7764 23.5691 13.7921 23.5775 13.8057 23.5886ZM15.915 23.8164C15.9416 23.886 15.9326 23.9343 15.893 23.9343C15.8792 23.9326 15.8659 23.9281 15.8538 23.921C15.8418 23.9139 15.8314 23.9044 15.8233 23.893C15.8152 23.8817 15.8095 23.8688 15.8066 23.8551C15.8037 23.8415 15.8036 23.8274 15.8065 23.8137C15.8104 23.8022 15.8179 23.7923 15.8278 23.7854C15.8377 23.7785 15.8496 23.7749 15.8617 23.7752C15.8738 23.7755 15.8855 23.7797 15.8951 23.7871C15.9047 23.7945 15.9117 23.8047 15.915 23.8164ZM20.0881 26.8979C20.1143 26.9675 20.106 26.989 20.0528 26.989C20.0401 26.9884 20.0277 26.9848 20.0167 26.9783C20.0057 26.9719 19.9965 26.9629 19.9898 26.9521C19.983 26.9412 19.9791 26.9289 19.9782 26.9162C19.9773 26.9035 19.9796 26.8908 19.9847 26.8791C19.9914 26.8707 20.0003 26.8642 20.0104 26.8604C20.0205 26.8566 20.0314 26.8557 20.042 26.8576C20.0526 26.8595 20.0625 26.8643 20.0706 26.8714C20.0787 26.8785 20.0847 26.8876 20.0881 26.8979ZM30.3241 27.7205C30.2857 27.9711 29.9967 28.8325 29.8566 29.1139C29.7619 29.3041 29.737 29.3348 29.671 29.343C29.6187 29.3466 29.5662 29.3388 29.5172 29.3201C29.4289 29.2834 29.2791 29.1249 29.2791 29.0683C29.3086 28.9774 29.3467 28.8894 29.3928 28.8057C29.4551 28.6825 29.5398 28.5073 29.5801 28.4185C29.6348 28.2979 29.6742 28.2477 29.7339 28.2224C29.8256 28.1835 29.9394 28.0501 30.1322 27.7553C30.3619 27.4043 30.3729 27.4023 30.3241 27.7205L30.3241 27.7205ZM19.1968 33.8512C19.1219 33.9136 19.0254 33.9094 19.0131 33.8433C19.0056 33.8031 19.0256 33.7953 19.1326 33.7964L19.261 33.7977L19.1968 33.8512V33.8512Z" fill="white"/>
<path d="M18.2312 10.2418C18.1969 10.3061 18.2371 10.4025 18.2982 10.4025C18.3263 10.4025 18.3384 10.3704 18.3384 10.2953C18.3384 10.1748 18.282 10.1466 18.2312 10.2418Z" fill="white"/>
<path d="M12.2175 13.2482C12.1964 13.2878 12.1854 13.332 12.1854 13.3768C12.1854 13.4217 12.1964 13.4659 12.2175 13.5055C12.2604 13.5485 12.3511 13.5463 12.4125 13.5008C12.4546 13.4697 12.4564 13.4572 12.4269 13.401C12.3888 13.3286 12.2907 13.2161 12.2656 13.2161C12.2468 13.222 12.2301 13.2331 12.2175 13.2482Z" fill="white"/>
<path d="M13.2902 18.3048C13.1859 18.3692 13.165 18.404 13.218 18.4245C13.2955 18.4544 13.4483 18.3291 13.397 18.2777C13.3823 18.2629 13.3409 18.2734 13.2902 18.3048Z" fill="white"/>
<path d="M12.9393 18.3494C12.8621 18.3818 12.8177 18.4679 12.8781 18.4679C12.9127 18.4679 13.0564 18.3421 13.0403 18.3259C13.0331 18.3186 12.9871 18.3293 12.9393 18.3494Z" fill="white"/>
<path d="M13.5606 18.6583C13.5431 18.6866 13.5683 18.9503 13.5951 19.02C13.6178 19.0789 13.6803 19.0602 13.7201 18.9825C13.7792 18.8673 13.7999 18.7142 13.7626 18.669C13.725 18.6234 13.5866 18.6161 13.5606 18.6583Z" fill="white"/>
<path d="M13.0157 19.087C12.9836 19.1621 12.9651 19.2424 12.9612 19.3241V19.4434L13.0143 19.3898C13.0835 19.3201 13.1456 19.0451 13.1021 19.0012C13.0774 18.9764 13.0578 18.9959 13.0157 19.087Z" fill="white"/>
<path d="M27.5669 14.2453C27.3077 14.3172 27.2586 14.379 27.3011 14.58C27.3346 14.7381 27.4875 14.9385 27.5375 14.8898C27.5615 14.8665 27.5591 14.8332 27.5282 14.7582C27.507 14.71 27.493 14.659 27.4867 14.6068C27.4867 14.5478 27.5804 14.4869 27.6061 14.5291C27.6473 14.5965 27.7189 14.5532 27.7789 14.4246C27.8772 14.2137 27.8288 14.1727 27.5669 14.2453V14.2453Z" fill="white"/>
<path d="M28.1289 18.3876C28.1071 18.4273 28.1097 18.4599 28.1388 18.5135C28.2437 18.7064 28.2458 18.713 28.2184 18.7574C28.1699 18.8357 28.0165 18.9235 27.9283 18.9235C27.8661 18.9211 27.8066 18.8975 27.7597 18.8565C27.7258 18.8244 27.6844 18.8014 27.6394 18.7895C27.5757 18.7895 27.4652 18.8913 27.3921 19.0173C27.3268 19.1298 27.3256 19.1388 27.3653 19.2156C27.4191 19.3193 27.4922 19.3227 27.7143 19.2316C27.9184 19.1479 27.9604 19.149 28.2359 19.2455C28.5328 19.3496 28.745 19.3541 28.8405 19.2584C28.918 19.1807 28.9269 19.0576 28.8592 18.998C28.8004 18.9551 28.7377 18.9177 28.6719 18.8864C28.4954 18.7985 28.3604 18.6598 28.3197 18.5242C28.2876 18.4171 28.2276 18.334 28.1824 18.334C28.1691 18.334 28.1451 18.3581 28.1289 18.3876V18.3876Z" fill="white"/>
<path d="M25.442 18.894C25.4339 18.9072 25.4675 18.9717 25.516 19.036C25.5977 19.1444 25.8386 19.2922 26.0097 19.3389C26.1022 19.3642 26.0845 19.2881 25.9722 19.1788C25.86 19.0695 25.4647 18.8572 25.442 18.894Z" fill="white"/>
<path d="M24.9035 19.3362C24.8897 19.3718 24.8402 19.379 24.6074 19.379H24.3279L24.1968 19.5016C24.0482 19.6399 23.9335 19.8107 23.8617 20.0007C23.8026 20.1604 23.6645 20.2999 23.4612 20.4051C23.2408 20.5192 23.3354 20.5331 23.5869 20.4236C24.1005 20.2 24.07 20.208 24.5312 20.1779C25.0528 20.144 25.2532 20.1614 25.298 20.2445C25.3148 20.2757 25.3343 20.4107 25.3417 20.5473L25.3551 20.7938L25.5156 20.8233C25.6063 20.8398 25.6933 20.8725 25.7724 20.9198C25.8251 20.9564 25.9463 21.042 26.0399 21.1087C26.1576 21.1925 26.2329 21.2281 26.2807 21.2226C26.3481 21.2148 26.3502 21.2092 26.3502 21.0404C26.3467 20.969 26.3546 20.8975 26.3736 20.8287C26.4048 20.7788 26.5803 20.801 26.9923 20.9069C27.1706 20.9527 27.3521 20.9855 27.5353 21.0049C27.7894 21.0225 27.914 20.9871 28.1532 20.8294C28.3233 20.7172 28.3944 20.5848 28.3955 20.3785C28.3967 20.1481 28.3967 20.1481 28.1506 20.2385C27.8456 20.3505 27.6975 20.3622 27.5059 20.2898C27.2812 20.2048 27.0613 19.9824 26.9973 19.7756C26.9228 19.5344 26.8599 19.5017 26.7167 19.6296L26.6552 19.6845L26.817 19.8346C26.9321 19.9412 26.9789 20.004 26.9789 20.0516C26.9789 20.1619 26.9013 20.2097 26.7221 20.2097C26.5402 20.2097 26.5286 20.2038 26.4477 20.0704C26.3731 19.9471 26.1532 19.7502 26.1015 19.7603C26.0812 19.7642 26.0395 19.8332 26.0105 19.9109C25.9676 20.0146 25.9054 20.1091 25.8273 20.1896C25.7091 20.3129 25.6899 20.3234 25.6119 20.3078C25.4862 20.2826 25.4222 20.2152 25.4323 20.1186C25.4388 20.0563 25.4648 20.0258 25.5477 19.9833C25.6413 19.9352 25.6557 19.9149 25.6627 19.8212C25.6686 19.7687 25.6593 19.7157 25.636 19.6684C25.5502 19.5945 25.458 19.5285 25.3605 19.471C25.1037 19.3091 24.9334 19.2588 24.9035 19.3362V19.3362ZM25.0216 19.4996C25.0644 19.5934 25.0609 19.7854 25.0151 19.848C24.9791 19.8972 24.9752 19.8962 24.895 19.8158C24.8008 19.7214 24.7889 19.6363 24.8528 19.513C24.9028 19.4165 24.9809 19.4103 25.0216 19.4996Z" fill="white"/>
<path d="M28.3448 21.5468C28.2648 21.6951 28.3375 21.9299 28.5749 22.289C28.6852 22.4643 28.7817 22.6479 28.8633 22.8383C29.0621 23.3153 29.312 23.6543 29.4503 23.6345C29.5903 23.6145 29.5021 23.267 29.2632 22.8973C29.1776 22.763 29.0998 22.6238 29.0303 22.4806C28.9726 22.3583 28.9083 22.2394 28.8377 22.1242C28.7782 22.0304 28.7241 21.9333 28.6753 21.8335C28.6184 21.7102 28.4395 21.4958 28.3936 21.4958C28.3823 21.4958 28.3592 21.52 28.3448 21.5468Z" fill="white"/>
<defs>
<linearGradient id="paint0_linear" x1="41.3458" y1="1.5984" x2="-1.14108" y2="44.028" gradientUnits="userSpaceOnUse">
<stop offset="0.181" stop-color="#6F2296"/>
<stop offset="0.95313" stop-color="#4261E8"/>
</linearGradient>
<linearGradient id="paint1_linear" x1="56.5363" y1="39.4081" x2="117.595" y2="-2.81409" gradientUnits="userSpaceOnUse">
<stop offset="0.02075" stop-color="#6F2296"/>
<stop offset="0.03757" stop-color="#6F2296"/>
<stop offset="0.14297" stop-color="#6F2296"/>
<stop offset="0.30192" stop-color="#6B279D"/>
<stop offset="0.52638" stop-color="#6135AF"/>
<stop offset="0.78858" stop-color="#514CCD"/>
<stop offset="0.98159" stop-color="#4261E8"/>
</linearGradient>
<linearGradient id="paint2_linear" x1="56.5362" y1="39.4081" x2="117.595" y2="-2.81407" gradientUnits="userSpaceOnUse">
<stop offset="0.02075" stop-color="#6F2296"/>
<stop offset="0.03757" stop-color="#6F2296"/>
<stop offset="0.14297" stop-color="#6F2296"/>
<stop offset="0.30192" stop-color="#6B279D"/>
<stop offset="0.52638" stop-color="#6135AF"/>
<stop offset="0.78858" stop-color="#514CCD"/>
<stop offset="0.98159" stop-color="#4261E8"/>
</linearGradient>
</defs>
</svg>
