<svg width="20" height="20" viewBox="0 0 20 20" fill="none" xmlns="http://www.w3.org/2000/svg">
<path d="M1.37417 2.76312L5.94121 0.121254C6.20512 -0.0314078 6.52694 -0.0404502 6.7988 0.0971571L13.2012 3.33776C13.4731 3.47537 13.7949 3.46633 14.0588 3.31367L17.9598 1.05707C18.8689 0.531202 20 1.19569 20 2.25561V14.8398C20 15.8305 19.4756 16.7453 18.6258 17.2369L14.0588 19.8787C13.7949 20.0314 13.4731 20.0404 13.2012 19.9028L6.7988 16.6622C6.52694 16.5246 6.20512 16.5337 5.94121 16.6863L2.04019 18.9429C1.13111 19.4688 0 18.8043 0 17.7444V5.16021C0 4.16946 0.524417 3.25467 1.37417 2.76312Z" fill="#9FAAB3"/>
<path d="M5.70537 2.051L5.95663 1.92382C6.21257 1.79427 6.51382 1.79427 6.76975 1.92382L7.02102 2.051C7.17501 2.12894 7.27228 2.28827 7.27228 2.46256V14.7643C7.27228 14.9011 7.13004 14.9901 7.00915 14.9289L6.56647 14.7049C6.4385 14.6401 6.28788 14.6401 6.15991 14.7049L5.71723 14.9289C5.59634 14.9901 5.4541 14.9011 5.4541 14.7643V2.46256C5.4541 2.28827 5.55138 2.12894 5.70537 2.051Z" fill="white"/>
<path d="M14.2935 17.9496L14.0422 18.0768C13.7863 18.2063 13.485 18.2063 13.2291 18.0768L12.9778 17.9496C12.8238 17.8717 12.7266 17.7123 12.7266 17.5381L12.7266 5.2363C12.7266 5.09947 12.8688 5.01048 12.9897 5.07167L13.4324 5.29574C13.5603 5.36051 13.711 5.36051 13.8389 5.29574L14.2816 5.07167C14.4025 5.01048 14.5447 5.09947 14.5447 5.2363L14.5447 17.5381C14.5447 17.7123 14.4475 17.8717 14.2935 17.9496Z" fill="white"/>
</svg>
