<svg width="30" height="30" viewBox="0 0 30 30" fill="none" xmlns="http://www.w3.org/2000/svg">
<circle cx="15" cy="15" r="14" fill="#5ECC70" stroke="white" stroke-width="2"/>
<path d="M15.8379 14.1365L14.5068 13.8301C13.8769 13.7047 13.7699 13.2869 13.7699 12.9387C13.7699 12.5766 14.0671 11.9638 14.8633 11.9638C15.2472 11.9638 15.5592 12.0443 15.7833 12.2335C16.2025 12.5874 16.588 13.0919 17.1366 13.0919C17.753 13.0919 18.2637 12.5591 18.0557 11.9788C17.5775 10.6452 16.3886 10 14.8633 10C12.9737 10 11.6783 11.1142 11.6783 12.8552C11.6783 14.7772 12.8311 15.4178 14.2216 15.7242L15.2793 15.9471C16.0993 16.1281 16.3845 16.3788 16.3845 16.9916C16.3845 17.5487 15.8379 18.0362 15.0178 18.0362C14.4742 18.0362 14.1258 17.8214 13.9057 17.4837C13.607 17.0253 13.1981 16.5877 12.6509 16.5877C12.0233 16.5877 11.5016 17.1202 11.6805 17.7217C12.1272 19.223 13.3475 20 14.9941 20C16.8956 20 18.5 19.0111 18.5 17.0195C18.5 15.4039 17.7988 14.5961 15.8379 14.1365Z" fill="white"/>
<path d="M14 9C14 8.44772 14.4477 8 15 8C15.5523 8 16 8.44772 16 9V11H14V9Z" fill="white"/>
<path d="M14 19H16V21C16 21.5523 15.5523 22 15 22C14.4477 22 14 21.5523 14 21V19Z" fill="white"/>
</svg>
