<svg width="18" height="19" viewBox="0 0 18 19" fill="none" xmlns="http://www.w3.org/2000/svg">
<path d="M4.24852 8.34325C4.8375 4.21719 7.46913 3 9 3C10.5309 3 13.1625 4.21719 13.7515 8.34325C14.1549 11.1692 15.0736 13.3286 15.9996 14.7782C15.9971 14.829 15.9831 14.9024 15.9531 14.9787C15.9502 14.986 15.9472 14.9931 15.9443 14.9999H2.05573C2.05277 14.9931 2.04983 14.986 2.04694 14.9787C2.01688 14.9024 2.00289 14.829 2.00041 14.7782C2.92645 13.3286 3.84513 11.1692 4.24852 8.34325Z" stroke="#9FAAB3" stroke-width="2"/>
<path d="M6.28516 15.9687C6.74651 17.1648 7.79061 18.002 9.00255 18.002C10.2145 18.002 11.2585 17.1648 11.7199 15.9687H6.28516Z" fill="#9FAAB3"/>
<path d="M9.00232 2.5149C9.95545 2.5149 10.8706 2.7039 11.7199 3.04991V2.93234C11.7199 1.31544 10.5494 0 9.11069 0H8.89445C7.45568 0 6.28516 1.31544 6.28516 2.93234V3.04841C7.13399 2.70343 8.04891 2.5149 9.00232 2.5149Z" fill="#9FAAB3"/>
</svg>
