<svg width="30" height="30" viewBox="0 0 30 30" fill="none" xmlns="http://www.w3.org/2000/svg">
<circle cx="15" cy="15" r="14" fill="#FFA27A" stroke="white" stroke-width="2"/>
<path d="M14.0117 12C14.0117 13.1046 13.1137 14 12.0059 14C10.8981 14 10 13.1046 10 12C10 10.8954 10.8981 10 12.0059 10C13.1137 10 14.0117 10.8954 14.0117 12Z" fill="white"/>
<path d="M20 18C20 19.1046 19.1019 20 17.9941 20C16.8863 20 15.9883 19.1046 15.9883 18C15.9883 16.8954 16.8863 16 17.9941 16C19.1019 16 20 16.8954 20 18Z" fill="white"/>
<rect width="2.00293" height="12.0176" rx="1.00147" transform="matrix(0.708141 0.706071 -0.708141 0.706071 18.5322 10.0503)" fill="white"/>
</svg>
