<svg width="16" height="16" viewBox="0 0 16 16" fill="none" xmlns="http://www.w3.org/2000/svg">
<path fill-rule="evenodd" clip-rule="evenodd" d="M8 16C12.4183 16 16 12.4183 16 8C16 3.58172 12.4183 0 8 0C3.58172 0 0 3.58172 0 8C0 12.4183 3.58172 16 8 16ZM9.01734 4.00088C9.61905 4.0075 10.2518 4.35066 10.951 5.04947C11.6515 5.74995 11.9946 6.38411 11.9996 6.98744C12.0021 7.0196 11.9951 7.05187 11.9796 7.08021C11.9708 7.09641 11.9594 7.11099 11.946 7.12339C11.5967 7.47901 11.1208 7.68196 10.6222 7.68768C10.4994 7.68309 10.3781 7.6684 10.2593 7.64413L9.05354 8.84987C9.33131 9.30888 9.40662 10.329 8.7839 10.9514C8.66289 11.0736 8.49681 11.1404 8.32488 11.1361C7.84635 11.1361 7.22812 10.7123 6.66377 10.2097L4.26669 11.9675C4.20742 12.012 4.12595 12.012 4.06668 11.9675C3.99304 11.9123 3.97811 11.8078 4.03335 11.7342L5.78968 9.33792C5.54872 9.06223 5.32865 8.76858 5.13145 8.45937C4.80544 7.90469 4.77744 7.48636 5.04812 7.21568C5.38343 6.89364 5.83485 6.72109 6.29949 6.73734C6.59801 6.72287 6.89258 6.79879 7.1455 6.95316L8.35096 5.74772C8.21385 5.08847 8.45649 4.47481 8.88213 4.04897C8.91348 4.01755 8.95606 3.99992 9.00043 4C9.00614 4.00001 9.01178 4.00031 9.01734 4.00088Z" fill="#9FAAB3"/>
</svg>
