<svg width="40" height="40" viewBox="0 0 40 40" fill="none" xmlns="http://www.w3.org/2000/svg">
<mask id="mask0" style="mask-type:alpha" maskUnits="userSpaceOnUse" x="0" y="0" width="40" height="40">
<circle cx="20" cy="20" r="20" fill="#C4C4C4"/>
</mask>
<g mask="url(#mask0)">
<circle cx="20" cy="20" r="20" fill="url(#paint0_linear)"/>
<g opacity="0.3" filter="url(#filter0_f)">
<rect x="6.94336" y="-2" width="48" height="6.12576" transform="rotate(30 6.94336 -2)" fill="white"/>
</g>
<g opacity="0.3" filter="url(#filter1_f)">
<rect x="0.512695" y="8" width="50.1715" height="1.02545" transform="rotate(30 0.512695 8)" fill="white"/>
</g>
<path d="M19.7108 16.6L18.5468 21.448L17.1908 16.6H14.9828L13.6148 21.448L12.4508 16.6H10.0268L12.4148 25H14.5388L16.0868 20.212L17.6228 25H19.7468L22.1348 16.6H19.7108ZM27.071 19.972L25.679 19.708C25.127 19.612 25.103 19.288 25.103 19.072C25.103 18.868 25.355 18.388 26.015 18.388C26.639 18.388 27.107 18.568 27.179 19.264H29.579C29.447 17.356 27.971 16.492 26.015 16.492C24.095 16.492 22.727 17.44 22.727 19C22.727 20.764 23.963 21.28 25.367 21.544L26.387 21.724C27.203 21.868 27.395 22.06 27.395 22.468C27.395 22.84 26.891 23.2 26.195 23.2C25.367 23.2 25.055 22.72 24.935 22.072H22.535C22.619 24.112 24.107 25.108 26.159 25.108C28.079 25.108 29.807 24.268 29.807 22.492C29.807 21.112 29.159 20.392 27.071 19.972Z" fill="white"/>
</g>
<defs>
<filter id="filter0_f" x="0.880371" y="-5" width="50.6321" height="35.3051" filterUnits="userSpaceOnUse" color-interpolation-filters="sRGB">
<feFlood flood-opacity="0" result="BackgroundImageFix"/>
<feBlend mode="normal" in="SourceGraphic" in2="BackgroundImageFix" result="shape"/>
<feGaussianBlur stdDeviation="1.5" result="effect1_foregroundBlur"/>
</filter>
<filter id="filter1_f" x="-2" y="6" width="47.9625" height="29.9738" filterUnits="userSpaceOnUse" color-interpolation-filters="sRGB">
<feFlood flood-opacity="0" result="BackgroundImageFix"/>
<feBlend mode="normal" in="SourceGraphic" in2="BackgroundImageFix" result="shape"/>
<feGaussianBlur stdDeviation="1" result="effect1_foregroundBlur"/>
</filter>
<linearGradient id="paint0_linear" x1="0" y1="0" x2="40" y2="40" gradientUnits="userSpaceOnUse">
<stop stop-color="#FFDE74"/>
<stop offset="1" stop-color="#FFB000"/>
</linearGradient>
</defs>
</svg>
