<svg width="20" height="20" viewBox="0 0 20 20" fill="none" xmlns="http://www.w3.org/2000/svg">
<path fill-rule="evenodd" clip-rule="evenodd" d="M4.66742 2.90012C5.2873 1.67914 6.54052 0.909912 7.90984 0.909912H12.0889C13.4583 0.909912 14.7115 1.67915 15.3314 2.90012L16.072 4.35899L14.0901 5.00082L13.2561 3.61083C12.9275 3.06318 12.3357 2.72809 11.697 2.72809H8.30137C7.66271 2.72809 7.07088 3.06318 6.74229 3.61083L5.90829 5.00082L3.92676 4.35899L4.66742 2.90012Z" fill="#5448C8"/>
<path d="M20 5.83486V7.03221C20 7.91869 19.4766 8.72427 18.6594 9.09575L11.9341 12.1527C10.7069 12.7105 9.29309 12.7105 8.06589 12.1527L1.34064 9.09575C0.523366 8.72427 0 7.91869 0 7.03221V5.83486C0 4.78886 0.860991 3.94092 1.92308 3.94092H18.0769C19.139 3.94092 20 4.78886 20 5.83486Z" fill="#5448C8"/>
<path d="M16.1884 19.0922H3.81081C2.55562 19.0922 1.53809 18.0747 1.53809 16.8195V11.3647L8.56377 14.3842C9.48043 14.7781 10.5187 14.7782 11.4354 14.3842L18.4612 11.3649V16.8195C18.4612 18.0747 17.4436 19.0922 16.1884 19.0922Z" fill="#5448C8"/>
</svg>
