<svg width="20" height="20" viewBox="0 0 20 20" fill="none" xmlns="http://www.w3.org/2000/svg">
<path d="M10.0011 20.0002C7.10458 20.0002 4.61825 19.3007 2.93413 18.7296C1.74311 18.3257 0.910156 17.1465 0.910156 15.8889V15.6939C0.910156 14.1296 3.26598 12.8293 5.02177 12.1458C5.59958 11.9209 6.23824 12.0819 6.79107 12.3626C7.94226 12.9473 9.33262 13.1102 10.0011 13.1102C10.6695 13.1102 12.0599 12.9473 13.2111 12.3626C13.7639 12.0819 14.4026 11.9209 14.9804 12.1458C16.7361 12.8293 19.092 14.1296 19.092 15.6939V15.8889C19.092 17.1465 18.259 18.3257 17.068 18.7296C15.3839 19.3007 12.8976 20.0002 10.0011 20.0002Z" fill="#9FAAB3"/>
<circle cx="10.0014" cy="5.45455" r="5.45455" fill="#9FAAB3"/>
</svg>
