<svg width="16" height="16" viewBox="0 0 16 16" fill="none" xmlns="http://www.w3.org/2000/svg">
<path d="M0.100578 10.7404L1.60147 13.2597C1.78037 13.5599 2.15304 13.696 2.49184 13.585L4.70035 12.8609C4.89551 12.9856 5.09788 13.0991 5.30616 13.2006L5.76323 15.4154C5.83337 15.7553 6.1414 16 6.49911 16H9.50089C9.8586 16 10.1666 15.7553 10.2368 15.4154L10.6938 13.2006C10.9021 13.0991 11.1044 12.9856 11.2996 12.8609L13.5082 13.585C13.847 13.696 14.2197 13.56 14.3985 13.2597L15.8994 10.7403C16.0783 10.4401 16.0136 10.0592 15.7449 9.8304L13.9934 8.33867C14.0001 8.22565 14.0036 8.11253 14.0036 8C14.0036 7.88742 14.0001 7.7743 13.9934 7.66128L15.7448 6.1696C16.0135 5.94075 16.0782 5.5599 15.8993 5.25969L14.3984 2.74032C14.2196 2.4401 13.8469 2.3039 13.5081 2.41503L11.2996 3.1391C11.1045 3.0144 10.9021 2.90095 10.6938 2.79942L10.2368 0.58463C10.1666 0.244703 9.8586 0 9.50089 0H6.49911C6.1414 0 5.83337 0.244703 5.76323 0.58463L5.30616 2.79942C5.09788 2.90095 4.89556 3.01445 4.7004 3.1391L2.49184 2.41503C2.15314 2.304 1.78037 2.4401 1.60147 2.74032L0.100578 5.25969C-0.0782777 5.5599 -0.0136395 5.94075 0.255069 6.1696L2.00651 7.66128C1.9998 7.77416 1.99645 7.88727 1.99645 8C1.99645 8.11273 1.9998 8.22589 2.00651 8.33871L0.255069 9.8304C-0.0136395 10.0592 -0.0782777 10.4401 0.100578 10.7404ZM8 5.09091C9.65518 5.09091 11.0018 6.39593 11.0018 8C11.0018 9.60407 9.65518 10.9091 8 10.9091C6.34482 10.9091 4.99822 9.60407 4.99822 8C4.99822 6.39593 6.34482 5.09091 8 5.09091Z" fill="#9FAAB3"/>
</svg>
