<svg width="16" height="16" viewBox="0 0 16 16" fill="none" xmlns="http://www.w3.org/2000/svg">
<path fill-rule="evenodd" clip-rule="evenodd" d="M8 16C12.4183 16 16 12.4183 16 8C16 3.58172 12.4183 0 8 0C3.58172 0 0 3.58172 0 8C0 12.4183 3.58172 16 8 16ZM7.54534 10.7584L11.7657 6.40871C12.0781 6.08628 12.0781 5.56388 11.7655 5.24164C11.453 4.91958 10.946 4.91933 10.6333 5.24164L6.97936 9.00784L5.36666 7.34559C5.0541 7.02341 4.54718 7.02341 4.23448 7.34571C3.92184 7.66795 3.92184 8.19054 4.23448 8.51272L6.41304 10.7584C6.72586 11.0805 7.23282 11.0805 7.54534 10.7584Z" fill="#9FAAB3"/>
</svg>
